<?xml version="1.0" standalone="no"?><!DOCTYPE svg PUBLIC "-//W3C//DTD SVG 1.1//EN" "http://www.w3.org/Graphics/SVG/1.1/DTD/svg11.dtd"><svg width="100%" height="100%" viewBox="0 0 50 50" version="1.1" xmlns="http://www.w3.org/2000/svg" xmlns:xlink="http://www.w3.org/1999/xlink" xml:space="preserve" style="fill-rule:evenodd;clip-rule:evenodd;stroke-linejoin:round;stroke-miterlimit:1.41421;"><g><path d="M25.008,5c-0.175,0.001 -0.35,0.003 -0.525,0.007c-0.214,0.006 -0.427,0.014 -0.641,0.026c-1.048,0.063 -2.09,0.201 -3.116,0.425c-1.911,0.417 -3.758,1.118 -5.465,2.073c-1.995,1.116 -3.796,2.575 -5.303,4.294c-1.433,1.634 -2.599,3.5 -3.433,5.507c-0.746,1.792 -1.225,3.691 -1.422,5.622c-0.205,2.025 -0.105,4.082 0.304,6.076c0.409,1.998 1.128,3.929 2.124,5.709c1.155,2.065 2.678,3.922 4.476,5.46c1.869,1.6 4.03,2.852 6.35,3.67c2.495,0.88 5.161,1.249 7.801,1.098c2.761,-0.158 5.48,-0.893 7.941,-2.155c2.966,-1.52 5.534,-3.786 7.417,-6.536c1.493,-2.181 2.547,-4.656 3.077,-7.246c0.273,-1.329 0.403,-2.681 0.407,-4.038l5,0.016c-0.005,1.479 -0.13,2.956 -0.391,4.413c-0.486,2.717 -1.428,5.349 -2.776,7.759c-1.467,2.622 -3.408,4.975 -5.703,6.915c-2.153,1.821 -4.614,3.276 -7.25,4.279c-2.28,0.867 -4.686,1.395 -7.119,1.565c-2.426,0.169 -4.877,-0.012 -7.251,-0.545c-2.535,-0.569 -4.977,-1.539 -7.213,-2.862c-2.586,-1.529 -4.89,-3.525 -6.774,-5.864c-1.933,-2.4 -3.418,-5.154 -4.352,-8.091c-1.004,-3.158 -1.366,-6.513 -1.072,-9.814c0.305,-3.433 1.33,-6.792 2.994,-9.811c1.815,-3.29 4.375,-6.158 7.437,-8.336c2.733,-1.944 5.854,-3.329 9.132,-4.043c1.126,-0.246 2.269,-0.413 3.418,-0.5c0.585,-0.045 1.172,-0.067 1.759,-0.073l0.153,0c0.005,1.667 0.011,3.333 0.016,5Z" style="fill:#f0f;fill-rule:nonzero;"/></g></svg>