<?xml version="1.0" standalone="no"?><!DOCTYPE svg PUBLIC "-//W3C//DTD SVG 1.1//EN" "http://www.w3.org/Graphics/SVG/1.1/DTD/svg11.dtd"><svg width="100%" height="100%" viewBox="0 0 920 920" version="1.1" xmlns="http://www.w3.org/2000/svg" xmlns:xlink="http://www.w3.org/1999/xlink" xml:space="preserve" style="fill-rule:evenodd;clip-rule:evenodd;stroke-linejoin:round;stroke-miterlimit:1.41421;"><g><path d="M94.401,770.97l-22.94,-126.789l41.081,-7.433c15.567,-2.817 25.83,-4.019 30.787,-3.606c7.609,0.588 14.441,3.625 20.494,9.109c6.054,5.484 9.994,13.272 11.819,23.362c1.409,7.784 1.18,14.583 -0.685,20.399c-1.866,5.816 -4.701,10.631 -8.507,14.445c-3.805,3.815 -7.868,6.619 -12.188,8.413c-5.892,2.317 -14.633,4.524 -26.223,6.621l-16.691,3.02l8.653,47.827l-25.6,4.632ZM100.941,660.997l6.51,35.979l14.011,-2.535c10.09,-1.826 16.716,-3.71 19.878,-5.651c3.162,-1.942 5.453,-4.5 6.873,-7.675c1.42,-3.175 1.792,-6.636 1.113,-10.383c-0.834,-4.613 -2.878,-8.173 -6.13,-10.681c-3.252,-2.508 -7.022,-3.761 -11.309,-3.76c-3.16,-0.023 -9.353,0.799 -18.578,2.469l-12.368,2.237Z" style="fill:#d9d9d9;fill-rule:nonzero;"/><path d="M260.269,710.769l24.951,-0.317c-1.507,9.443 -5.199,17.093 -11.076,22.949c-5.877,5.857 -13.861,9.698 -23.951,11.524c-15.971,2.89 -28.735,-0.19 -38.292,-9.238c-7.567,-7.265 -12.503,-17.269 -14.808,-30.011c-2.755,-15.222 -0.933,-27.862 5.464,-37.922c6.397,-10.059 15.679,-16.189 27.844,-18.391c13.665,-2.472 25.263,0.089 34.795,7.683c9.532,7.594 15.81,20.734 18.833,39.42l-60.886,11.017c1.477,7.176 4.452,12.428 8.925,15.757c4.472,3.329 9.505,4.488 15.098,3.476c3.805,-0.689 6.818,-2.305 9.037,-4.851c2.219,-2.545 3.574,-6.244 4.066,-11.096ZM257.208,685.956c-1.446,-7.003 -4.229,-12.022 -8.351,-15.057c-4.122,-3.035 -8.662,-4.104 -13.621,-3.207c-5.304,0.96 -9.337,3.684 -12.097,8.173c-2.761,4.489 -3.512,10.044 -2.255,16.664l36.324,-6.573Z" style="fill:#d9d9d9;fill-rule:nonzero;"/><path d="M334.141,727.592l-24.302,4.397l-16.619,-91.848l22.573,-4.084l2.363,13.059c2.747,-6.868 5.485,-11.562 8.215,-14.08c2.73,-2.519 6.055,-4.133 9.976,-4.842c5.535,-1.002 11.145,-0.439 16.829,1.689l-3.69,22.55c-4.574,-1.911 -8.619,-2.549 -12.136,-1.912c-3.402,0.615 -6.115,2.074 -8.14,4.375c-2.025,2.302 -3.272,6.026 -3.74,11.172c-0.468,5.146 0.712,15.531 3.539,31.157l5.132,28.367Z" style="fill:#d9d9d9;fill-rule:nonzero;"/><path d="M366.503,694.673l23.716,-8.131c1.893,4.54 4.647,7.748 8.262,9.625c3.614,1.877 8.275,2.298 13.984,1.266c6.284,-1.137 10.803,-3.146 13.557,-6.026c1.842,-2.001 2.517,-4.356 2.027,-7.066c-0.334,-1.845 -1.187,-3.268 -2.559,-4.27c-1.42,-0.934 -4.323,-1.511 -8.709,-1.729c-20.386,-0.778 -33.526,-2.479 -39.42,-5.105c-8.162,-3.644 -13.041,-9.876 -14.637,-18.698c-1.44,-7.957 0.493,-15.214 5.797,-21.771c5.304,-6.557 14.558,-11.029 27.761,-13.418c12.569,-2.275 22.28,-1.918 29.133,1.07c6.852,2.988 12.157,8.28 15.913,15.877l-22.152,8.385c-1.627,-3.397 -3.982,-5.8 -7.065,-7.207c-3.083,-1.407 -7.162,-1.652 -12.235,-0.733c-6.4,1.157 -10.822,2.881 -13.267,5.169c-1.615,1.602 -2.24,3.412 -1.875,5.43c0.313,1.73 1.386,3.054 3.219,3.973c2.484,1.218 10.463,2.126 23.939,2.724c13.477,0.599 23.166,2.567 29.07,5.905c5.856,3.407 9.483,8.973 10.881,16.699c1.523,8.418 -0.685,16.29 -6.623,23.617c-5.939,7.327 -15.799,12.237 -29.579,14.73c-12.512,2.264 -22.873,1.519 -31.085,-2.235c-8.212,-3.754 -14.23,-9.781 -18.053,-18.081Z" style="fill:#d9d9d9;fill-rule:nonzero;"/><path d="M464.148,655.302c-1.46,-8.072 -0.884,-16.245 1.727,-24.518c2.612,-8.273 7.205,-15.058 13.779,-20.356c6.573,-5.299 14.358,-8.761 23.352,-10.389c13.896,-2.514 26.099,-0.063 36.611,7.354c10.512,7.417 17.015,18.016 19.508,31.796c2.514,13.895 0.115,26.223 -7.197,36.984c-7.312,10.761 -17.772,17.373 -31.379,19.835c-8.418,1.523 -16.791,1.073 -25.119,-1.35c-8.328,-2.423 -15.147,-6.951 -20.455,-13.582c-5.309,-6.632 -8.917,-15.223 -10.827,-25.774ZM489.291,652.092c1.649,9.11 5.073,15.695 10.274,19.756c5.2,4.061 10.972,5.518 17.314,4.37c6.342,-1.147 11.223,-4.531 14.642,-10.152c3.42,-5.62 4.295,-13.043 2.625,-22.268c-1.627,-8.995 -5.027,-15.525 -10.199,-19.591c-5.171,-4.066 -10.928,-5.526 -17.271,-4.378c-6.342,1.148 -11.237,4.534 -14.685,10.16c-3.448,5.625 -4.348,12.993 -2.7,22.103Z" style="fill:#d9d9d9;fill-rule:nonzero;"/><path d="M670.054,666.813l-24.302,4.398l-8.482,-46.876c-1.794,-9.917 -3.474,-16.238 -5.038,-18.962c-1.565,-2.724 -3.661,-4.681 -6.288,-5.873c-2.627,-1.192 -5.584,-1.491 -8.871,-0.896c-4.209,0.761 -7.777,2.598 -10.704,5.509c-2.926,2.912 -4.665,6.382 -5.216,10.412c-0.552,4.029 0.101,11.176 1.958,21.439l7.527,41.6l-24.302,4.397l-16.619,-91.848l22.573,-4.085l2.441,13.492c6.137,-11.828 15.288,-18.843 27.453,-21.044c5.363,-0.971 10.438,-0.892 15.227,0.237c4.789,1.128 8.594,2.985 11.414,5.571c2.82,2.586 5.021,5.701 6.603,9.345c1.582,3.644 3.015,9.011 4.298,16.103l10.328,57.081Z" style="fill:#d9d9d9;fill-rule:nonzero;"/><path d="M701.316,595.24l-22.773,0.012c0.872,-9.327 3.95,-16.672 9.232,-22.034c5.282,-5.363 13.89,-9.123 25.826,-11.283c10.839,-1.961 19.143,-2.139 24.912,-0.533c5.769,1.606 10.092,4.188 12.968,7.747c2.877,3.558 5.27,10.613 7.179,21.164l4.873,28.415c1.461,8.072 2.927,13.954 4.399,17.648c1.472,3.693 3.672,7.538 6.598,11.534l-24.043,4.35c-0.927,-1.499 -2.138,-3.751 -3.634,-6.756c-0.665,-1.368 -1.125,-2.267 -1.382,-2.697c-3.421,4.787 -7.313,8.617 -11.675,11.491c-4.363,2.873 -9.226,4.795 -14.588,5.765c-9.456,1.711 -17.372,0.494 -23.749,-3.652c-6.377,-4.146 -10.275,-10.139 -11.694,-17.981c-0.939,-5.189 -0.537,-10.04 1.207,-14.554c1.744,-4.513 4.655,-8.255 8.732,-11.226c4.077,-2.97 10.179,-6.024 18.305,-9.162c10.972,-4.188 18.482,-7.602 22.531,-10.24l-0.439,-2.421c-0.845,-4.67 -2.6,-7.792 -5.266,-9.363c-2.667,-1.572 -7.2,-1.779 -13.6,-0.621c-4.324,0.782 -7.543,2.243 -9.657,4.382c-2.114,2.139 -3.534,5.477 -4.262,10.015ZM737.403,609.075c-2.926,1.602 -7.631,3.733 -14.116,6.395c-6.485,2.662 -10.64,4.873 -12.466,6.632c-2.764,2.823 -3.833,5.964 -3.207,9.423c0.615,3.402 2.416,6.113 5.401,8.133c2.986,2.02 6.439,2.676 10.36,1.966c4.382,-0.792 8.301,-2.99 11.758,-6.593c2.544,-2.723 3.99,-5.754 4.339,-9.092c0.259,-2.19 -0.139,-6.197 -1.192,-12.02l-0.877,-4.844Z" style="fill:#d9d9d9;fill-rule:nonzero;"/><path d="M793.211,644.53l-22.941,-126.789l24.303,-4.397l22.941,126.789l-24.303,4.397Z" style="fill:#d9d9d9;fill-rule:nonzero;"/><path d="M154.355,902.395l-22.573,4.084l-2.442,-13.491c-2.798,5.924 -6.516,10.631 -11.155,14.12c-4.638,3.489 -9.552,5.703 -14.741,6.642c-10.552,1.909 -20.359,-0.707 -29.422,-7.851c-9.063,-7.143 -14.972,-18.325 -17.726,-33.547c-2.816,-15.567 -1.296,-28.064 4.56,-37.49c5.857,-9.425 14.378,-15.15 25.564,-17.174c10.263,-1.857 19.914,0.803 28.954,7.98l-8.263,-45.665l24.303,-4.397l22.941,126.789ZM80.821,866.218c1.773,9.802 4.411,16.649 7.914,20.54c5.068,5.633 11.119,7.813 18.154,6.541c5.592,-1.012 9.919,-4.251 12.979,-9.718c3.06,-5.466 3.735,-12.927 2.024,-22.383c-1.909,-10.551 -5.187,-17.803 -9.832,-21.756c-4.645,-3.953 -9.937,-5.392 -15.876,-4.317c-5.766,1.043 -10.18,4.208 -13.242,9.496c-3.063,5.288 -3.77,12.487 -2.121,21.597Z" style="fill:#d9d9d9;fill-rule:nonzero;"/><path d="M164.146,851.856c-1.461,-8.072 -0.885,-16.244 1.726,-24.517c2.612,-8.273 7.205,-15.059 13.779,-20.357c6.574,-5.298 14.358,-8.761 23.352,-10.388c13.896,-2.514 26.1,-0.063 36.612,7.354c10.511,7.417 17.014,18.015 19.507,31.795c2.515,13.896 0.116,26.224 -7.197,36.985c-7.312,10.761 -17.772,17.372 -31.379,19.834c-8.418,1.523 -16.791,1.073 -25.119,-1.35c-8.328,-2.423 -15.147,-6.95 -20.455,-13.582c-5.308,-6.631 -8.917,-15.223 -10.826,-25.774ZM189.288,848.647c1.649,9.11 5.073,15.695 10.274,19.756c5.2,4.061 10.972,5.517 17.314,4.37c6.343,-1.148 11.223,-4.532 14.642,-10.152c3.42,-5.621 4.295,-13.044 2.625,-22.269c-1.627,-8.994 -5.027,-15.525 -10.198,-19.591c-5.172,-4.066 -10.929,-5.525 -17.272,-4.377c-6.342,1.147 -11.237,4.534 -14.685,10.159c-3.448,5.626 -4.348,12.994 -2.7,22.104Z" style="fill:#d9d9d9;fill-rule:nonzero;"/><path d="M354.887,799.302l-23.174,8.659c-1.673,-4.64 -4.156,-7.912 -7.448,-9.817c-3.292,-1.905 -7.216,-2.446 -11.771,-1.622c-6.054,1.096 -10.505,4.059 -13.352,8.892c-2.847,4.832 -3.384,12.149 -1.611,21.951c1.972,10.897 5.195,18.263 9.67,22.098c4.475,3.835 9.798,5.194 15.967,4.078c4.613,-0.835 8.152,-2.83 10.618,-5.985c2.466,-3.156 3.725,-8.043 3.778,-14.662l24.605,-0.254c-0.497,11.403 -3.756,20.538 -9.779,27.403c-6.022,6.866 -14.943,11.368 -26.763,13.506c-13.434,2.431 -24.911,0.131 -34.43,-6.9c-9.519,-7.03 -15.635,-18.041 -18.347,-33.032c-2.744,-15.164 -0.873,-27.695 5.613,-37.592c6.486,-9.897 16.562,-16.081 30.227,-18.554c11.185,-2.024 20.515,-1.226 27.987,2.394c7.473,3.62 13.543,10.099 18.21,19.437Z" style="fill:#d9d9d9;fill-rule:nonzero;"/><path d="M445.468,849.722l-2.489,-13.751c-2.457,5.506 -6.154,10.164 -11.092,13.976c-4.937,3.811 -10.433,6.264 -16.487,7.359c-6.169,1.117 -11.95,0.763 -17.341,-1.06c-5.391,-1.823 -9.626,-4.987 -12.703,-9.492c-3.078,-4.504 -5.399,-11.081 -6.964,-19.729l-10.516,-58.119l24.303,-4.397l7.636,42.205c2.337,12.915 4.216,20.748 5.636,23.498c1.421,2.75 3.467,4.762 6.139,6.035c2.671,1.273 5.823,1.581 9.456,0.924c4.151,-0.751 7.664,-2.563 10.538,-5.435c2.875,-2.872 4.612,-6.104 5.213,-9.696c0.6,-3.592 -0.289,-11.961 -2.667,-25.107l-7.011,-38.746l24.303,-4.397l16.619,91.848l-22.573,4.084Z" style="fill:#d9d9d9;fill-rule:nonzero;"/><path d="M474.773,749.564l22.4,-4.052l2.269,12.54c6.251,-11.194 14.912,-17.793 25.982,-19.796c5.882,-1.064 11.203,-0.776 15.966,0.863c4.762,1.639 8.971,4.659 12.625,9.059c3.149,-5.631 6.84,-10.08 11.072,-13.347c4.232,-3.266 9,-5.38 14.305,-6.339c6.746,-1.221 12.702,-0.884 17.868,1.009c5.165,1.894 9.381,5.284 12.647,10.172c2.382,3.618 4.365,9.809 5.951,18.573l10.625,58.724l-24.302,4.397l-9.499,-52.497c-1.648,-9.11 -3.548,-14.84 -5.7,-17.189c-2.875,-3.053 -6.647,-4.157 -11.317,-3.312c-3.402,0.616 -6.414,2.233 -9.037,4.851c-2.623,2.618 -4.235,6.051 -4.836,10.298c-0.601,4.247 -0.119,10.695 1.446,19.343l7.981,44.108l-24.303,4.398l-9.107,-50.335c-1.617,-8.937 -3.093,-14.625 -4.427,-17.063c-1.335,-2.438 -3.025,-4.127 -5.07,-5.067c-2.046,-0.94 -4.626,-1.128 -7.739,-0.565c-3.748,0.678 -6.938,2.298 -9.571,4.858c-2.634,2.561 -4.254,5.861 -4.863,9.901c-0.609,4.04 -0.115,10.471 1.481,19.293l8.074,44.627l-24.302,4.397l-16.619,-91.849Z" style="fill:#d9d9d9;fill-rule:nonzero;"/><path d="M698.6,773.732l24.951,-0.316c-1.507,9.442 -5.199,17.092 -11.076,22.949c-5.877,5.856 -13.861,9.698 -23.951,11.523c-15.971,2.89 -28.735,-0.189 -38.292,-9.238c-7.567,-7.265 -12.503,-17.268 -14.808,-30.011c-2.755,-15.221 -0.933,-27.862 5.464,-37.921c6.397,-10.06 15.679,-16.19 27.844,-18.391c13.665,-2.473 25.263,0.088 34.795,7.682c9.532,7.594 15.81,20.734 18.833,39.42l-60.886,11.017c1.477,7.176 4.452,12.428 8.925,15.757c4.473,3.33 9.505,4.488 15.098,3.476c3.805,-0.688 6.818,-2.305 9.037,-4.85c2.219,-2.545 3.574,-6.244 4.066,-11.097ZM695.539,748.92c-1.446,-7.003 -4.229,-12.022 -8.351,-15.058c-4.122,-3.035 -8.662,-4.104 -13.621,-3.207c-5.304,0.96 -9.337,3.684 -12.097,8.173c-2.761,4.489 -3.512,10.044 -2.255,16.664l36.324,-6.572Z" style="fill:#d9d9d9;fill-rule:nonzero;"/><path d="M832.753,779.648l-24.302,4.398l-8.482,-46.876c-1.794,-9.917 -3.474,-16.238 -5.038,-18.962c-1.565,-2.723 -3.661,-4.681 -6.288,-5.873c-2.627,-1.192 -5.584,-1.491 -8.871,-0.896c-4.209,0.761 -7.777,2.598 -10.704,5.509c-2.926,2.912 -4.665,6.382 -5.216,10.412c-0.552,4.03 0.101,11.176 1.958,21.439l7.527,41.6l-24.302,4.397l-16.619,-91.848l22.573,-4.085l2.441,13.492c6.137,-11.828 15.288,-18.843 27.454,-21.044c5.362,-0.97 10.437,-0.891 15.226,0.237c4.79,1.128 8.594,2.985 11.414,5.571c2.82,2.586 5.021,5.701 6.603,9.345c1.583,3.644 3.015,9.012 4.298,16.103l10.328,57.081Z" style="fill:#d9d9d9;fill-rule:nonzero;"/><path d="M882.902,675.719l3.505,19.373l-16.605,3.005l6.698,37.016c1.356,7.495 2.305,11.834 2.846,13.016c0.541,1.183 1.447,2.076 2.718,2.68c1.27,0.603 2.712,0.759 4.327,0.467c2.249,-0.407 5.365,-1.775 9.35,-4.103l5.487,18.478c-5.212,3.444 -11.393,5.813 -18.542,7.106c-4.382,0.793 -8.465,0.773 -12.248,-0.061c-3.783,-0.834 -6.708,-2.27 -8.773,-4.308c-2.066,-2.037 -3.776,-4.988 -5.13,-8.852c-1.03,-2.731 -2.322,-8.392 -3.877,-16.983l-7.245,-40.043l-11.157,2.018l-3.505,-19.373l11.157,-2.018l-3.302,-18.249l21.823,-18.597l5.868,32.433l16.605,-3.005Z" style="fill:#d9d9d9;fill-rule:nonzero;"/></g></svg>