<?xml version="1.0" standalone="no"?>
<!DOCTYPE svg PUBLIC "-//W3C//DTD SVG 1.1//EN" "http://www.w3.org/Graphics/SVG/1.1/DTD/svg11.dtd">
<svg width="100%" height="100%" viewBox="0 0 900 420" version="1.1" xmlns="http://www.w3.org/2000/svg" xmlns:xlink="http://www.w3.org/1999/xlink" xml:space="preserve" style="fill-rule:evenodd;clip-rule:evenodd;stroke-linejoin:round;stroke-miterlimit:1.41421;">
    <g transform="matrix(1,0,0,1,-0,-440)">
        <g id="group-01" transform="matrix(2.14892,-7.75036e-16,-7.75036e-16,5.31324,4.79017e-13,-1791.56)">
            <g transform="matrix(1.40778,2.05352e-16,2.05352e-16,0.569372,0.351946,421.673)">
                <path d="M149.31,35.54L149.31,8.29L104.19,8.29L104.19,35.54L106.92,35.54L114.06,43.03L115.93,43.03L113.96,35.54L149.31,35.54Z" style="fill:rgb(57,26,85);fill-rule:nonzero;"/>
            </g>
            <g transform="matrix(1.40778,2.05352e-16,2.05352e-16,0.569372,0.351946,421.673)">
                <path d="M126.75,32.27C129.02,32.27 129.75,31.7 130.15,30.44L123.31,30.44C123.74,31.65 124.6,32.27 126.75,32.27M123,28.82L130.45,28.82C130.5,28.3 130.56,27.71 130.63,27.06L122.81,27.06C122.88,27.7 122.94,28.29 123,28.82M126.78,11.57C126.777,11.57 126.773,11.57 126.77,11.57C123.292,11.57 120.43,14.432 120.43,17.91C120.43,17.91 120.43,17.91 120.43,17.91C120.633,19.528 121.167,21.088 122,22.49C122.257,23.478 122.457,24.479 122.6,25.49L130.84,25.49C130.991,24.567 131.191,23.652 131.44,22.75C132.325,21.287 132.897,19.656 133.12,17.96C133.12,14.482 130.258,11.62 126.78,11.62" style="fill:rgb(200,170,2);fill-rule:nonzero;"/>
            </g>
            <g transform="matrix(1.40778,2.05352e-16,2.05352e-16,0.569372,0.351946,421.673)">
                <clipPath id="_clip1">
                    <path d="M123.32,30.44C123.75,31.65 124.61,32.26 126.76,32.26C128.91,32.26 129.81,31.69 130.16,30.44L123.32,30.44ZM122.78,27.06C122.85,27.7 122.91,28.29 122.97,28.82L130.42,28.82C130.47,28.3 130.52,27.71 130.6,27.06L122.78,27.06ZM120.41,17.91C120.619,19.53 121.16,21.089 122,22.49C122.257,23.478 122.457,24.479 122.6,25.49L130.84,25.49C130.991,24.567 131.192,23.652 131.44,22.75C132.326,21.287 132.898,19.656 133.12,17.96C132.986,14.574 130.163,11.862 126.775,11.862C123.387,11.862 120.564,14.574 120.43,17.96"/>
                </clipPath>
                <g clip-path="url(#_clip1)">
                    <rect x="111.3" y="-13.66" width="15.1" height="58.23" style="fill:rgb(255,221,0);fill-opacity:0.63;"/>
                </g>
            </g>
            <g transform="matrix(1.40778,2.05352e-16,2.05352e-16,0.569372,0.351946,421.673)">
                <path d="M158.31,35.54L158.31,8.29L203.43,8.29L203.43,35.54L200.7,35.54L193.56,43.03L191.69,43.03L193.66,35.54L158.31,35.54Z" style="fill:rgb(57,26,85);fill-rule:nonzero;"/>
            </g>
            <g transform="matrix(1.40778,2.05352e-16,2.05352e-16,0.569372,0.351946,421.673)">
                <path d="M180.1,15.37L180.87,14.8L181.65,15.37L181.35,14.45L182.14,13.89L181.17,13.89L180.87,12.97L180.57,13.89L179.61,13.89L180.39,14.45L180.1,15.37Z" style="fill:rgb(241,202,0);fill-rule:nonzero;"/>
            </g>
            <g transform="matrix(1.40778,2.05352e-16,2.05352e-16,0.569372,0.351946,421.673)">
                <path d="M180.89,14.82L181.65,15.37L181.35,14.45L182.14,13.89L181.17,13.89L180.89,13.04L180.89,14.82Z" style="fill:rgb(200,170,2);fill-rule:nonzero;"/>
            </g>
            <g transform="matrix(1.40778,2.05352e-16,2.05352e-16,0.569372,0.351946,421.673)">
                <path d="M176.09,16.44L176.87,15.88L177.64,16.44L177.35,15.53L178.13,14.96L177.16,14.96L176.87,14.04L176.57,14.96L175.6,14.96L176.39,15.53L176.09,16.44Z" style="fill:rgb(241,202,0);fill-rule:nonzero;"/>
            </g>
            <g transform="matrix(1.40778,2.05352e-16,2.05352e-16,0.569372,0.351946,421.673)">
                <path d="M173.94,16.97L173.64,17.9L172.68,17.9L173.46,18.46L173.17,19.37L173.94,18.81L174.71,19.37L174.42,18.46L175.2,17.9L174.24,17.9L173.94,16.97Z" style="fill:rgb(241,202,0);fill-rule:nonzero;"/>
            </g>
            <g transform="matrix(1.40778,2.05352e-16,2.05352e-16,0.569372,0.351946,421.673)">
                <path d="M172.86,22.8L173.64,23.37L173.34,22.45L174.13,21.89L173.16,21.89L172.86,20.97L172.57,21.89L171.6,21.89L172.38,22.45L172.09,23.37L172.86,22.8Z" style="fill:rgb(241,202,0);fill-rule:nonzero;"/>
            </g>
            <g transform="matrix(1.40778,2.05352e-16,2.05352e-16,0.569372,0.351946,421.673)">
                <path d="M174.24,25.9L173.94,24.97L173.64,25.9L172.67,25.9L173.46,26.46L173.16,27.37L173.94,26.81L174.71,27.37L174.42,26.46L175.2,25.9L174.24,25.9Z" style="fill:rgb(241,202,0);fill-rule:nonzero;"/>
            </g>
            <g transform="matrix(1.40778,2.05352e-16,2.05352e-16,0.569372,0.351946,421.673)">
                <path d="M177.17,28.83L176.87,27.91L176.58,28.83L175.61,28.83L176.39,29.39L176.1,30.31L176.87,29.74L177.65,30.31L177.35,29.39L178.14,28.83L177.17,28.83Z" style="fill:rgb(241,202,0);fill-rule:nonzero;"/>
            </g>
            <g transform="matrix(1.40778,2.05352e-16,2.05352e-16,0.569372,0.351946,421.673)">
                <path d="M181.17,29.89L180.87,28.97L180.58,29.89L179.61,29.89L180.39,30.46L180.1,31.37L180.87,30.8L181.65,31.37L181.35,30.46L182.14,29.89L181.17,29.89Z" style="fill:rgb(241,202,0);fill-rule:nonzero;"/>
            </g>
            <g transform="matrix(1.40778,2.05352e-16,2.05352e-16,0.569372,0.351946,421.673)">
                <path d="M185.17,28.83L184.87,27.91L184.57,28.83L183.61,28.83L184.39,29.39L184.1,30.31L184.87,29.74L185.65,30.31L185.35,29.39L186.14,28.83L185.17,28.83Z" style="fill:rgb(241,202,0);fill-rule:nonzero;"/>
            </g>
            <g transform="matrix(1.40778,2.05352e-16,2.05352e-16,0.569372,0.351946,421.673)">
                <path d="M188.1,25.9L187.81,24.97L187.51,25.9L186.54,25.9L187.33,26.46L187.03,27.37L187.81,26.81L188.58,27.37L188.28,26.46L189.07,25.9L188.1,25.9Z" style="fill:rgb(241,202,0);fill-rule:nonzero;"/>
            </g>
            <g transform="matrix(1.40778,2.05352e-16,2.05352e-16,0.569372,0.351946,421.673)">
                <path d="M190.13,21.88L189.17,21.88L188.87,20.96L188.57,21.88L187.6,21.88L188.39,22.44L188.1,23.36L188.87,22.79L189.64,23.36L189.35,22.44L190.13,21.88Z" style="fill:rgb(241,202,0);fill-rule:nonzero;"/>
            </g>
            <g transform="matrix(1.40778,2.05352e-16,2.05352e-16,0.569372,0.351946,421.673)">
                <path d="M187.03,19.36L187.81,18.8L188.58,19.36L188.28,18.45L189.07,17.89L188.1,17.89L187.81,16.96L187.51,17.89L186.54,17.89L187.33,18.45L187.03,19.36Z" style="fill:rgb(241,202,0);fill-rule:nonzero;"/>
            </g>
            <g transform="matrix(1.40778,2.05352e-16,2.05352e-16,0.569372,0.351946,421.673)">
                <path d="M184.88,14.04L184.59,14.97L183.62,14.96L184.4,15.53L184.11,16.44L184.88,15.88L185.66,16.44L185.36,15.53L186.15,14.96L185.18,14.96L184.88,14.04Z" style="fill:rgb(241,202,0);fill-rule:nonzero;"/>
            </g>
            <g transform="matrix(1.40778,2.05352e-16,2.05352e-16,0.569372,0.351946,421.673)">
                <path d="M158.14,87.69C157.34,87.62 156.81,86.27 156.95,84.69C157.09,83.11 157.85,81.86 158.65,81.93C159.45,82 159.98,83.35 159.84,84.93C159.7,86.51 158.94,87.76 158.14,87.69" style="fill:rgb(210,173,110);fill-rule:nonzero;"/>
                <path d="M160.1,86.46C159.52,86.51 158.96,85.51 158.84,84.23C158.72,82.95 159.11,81.87 159.69,81.82C160.27,81.77 160.83,82.77 160.95,84.05C161.07,85.33 160.68,86.41 160.1,86.46" style="fill:rgb(210,173,110);fill-rule:nonzero;"/>
            </g>
            <g transform="matrix(1.40778,2.05352e-16,2.05352e-16,0.569372,0.351946,421.673)">
                <path d="M161.52,52.53L165.04,61.57L160.9,82.47L157.74,82.32L161.52,52.53Z" style="fill:rgb(255,100,121);fill-rule:nonzero;"/>
            </g>
            <g transform="matrix(1.40778,2.05352e-16,2.05352e-16,0.569372,0.351946,421.673)">
                <path d="M165.08,37.85C165.08,37.85 176.08,26.3 172.85,39.97C175.93,40.57 175.24,42.65 175.24,42.65L173.92,45.17L173.74,46.11C173.74,46.11 173.68,47.9 174.13,48.4C174.58,48.9 176.31,50.4 176.31,50.4C176.31,50.4 172,59.92 169.17,56C166.34,52.08 165.29,53.12 165.29,53.12C165.29,53.12 168,47.89 168,47.76C166.32,47.85 166.15,46.57 166.15,46.57C165.955,45.759 165.691,44.966 165.36,44.2C165.218,43.235 165.218,42.255 165.36,41.29C165.472,40.689 165.342,40.067 165,39.56C164.908,38.995 164.928,38.417 165.06,37.86" style="fill:rgb(210,173,110);fill-rule:nonzero;"/>
                <path d="M168.06,36.94C168.06,36.94 169.79,37.15 169.98,37.6C170.17,38.05 171.32,38.6 171.08,39.06C171.65,40.42 172.37,39.59 172.5,40.31C172.63,41.03 172.56,42.13 173.13,42.1C174.83,39.79 175.04,43.72 173.62,43.86C172.88,44.08 173.69,46.37 173.69,46.37C173.69,46.37 174.84,46.18 175.63,44.25C176.07,43.244 176.328,42.167 176.39,41.07C176.62,39.87 176.22,39.07 176.16,37.97C176.1,36.87 175.11,36.24 174.84,35.49C174.84,34.49 172.67,33.49 172.02,33.19C170.434,34.136 169.07,35.411 168.02,36.93" style="fill:rgb(98,21,0);fill-rule:nonzero;"/>
                <path d="M182.13,81.9L182.13,81L182.13,61.47C182.13,56.4 180.2,52.06 176.49,50C175.92,51.1 173.87,51.92 171.41,51.92C168.95,51.92 166.9,51.1 166.33,50C162.63,52.05 163.39,56.45 163.39,61.51C163.39,61.51 164.57,86.15 167.01,86.36L165.3,88L167.35,123.44L170.3,123.44L171.3,86.55L171.43,86.55L172.43,123.44L175.38,123.44L177.49,88L179.56,86.51C182,86.29 181.89,84.35 182.11,81.92L182.13,81.9Z" style="fill:rgb(255,100,121);fill-rule:nonzero;"/>
            </g>
            <g transform="matrix(1.40778,2.05352e-16,2.05352e-16,0.569372,0.351946,421.673)">
                <clipPath id="_clip2">
                    <path d="M171.4,51.92C168.94,51.92 166.89,51.1 166.32,50C162.62,52.06 163.38,56.45 163.38,61.51C163.38,61.51 164.56,86.15 167,86.37L165.3,88L167.35,123.44L170.3,123.44L171.3,86.55L171.42,86.55L172.42,123.44L175.42,123.44L177.49,88L179.56,86.51C182,86.29 181.89,84.35 182.11,81.92L182.11,81L182.11,61.47C182.11,56.4 180.18,52.06 176.47,50C175.9,51.1 173.85,51.92 171.39,51.92"/>
                </clipPath>
                <g clip-path="url(#_clip2)">
                    <rect x="160.52" y="102.67" width="21.75" height="21.75" style="fill:rgb(210,173,110);"/>
                </g>
            </g>
            <g transform="matrix(1.40778,2.05352e-16,2.05352e-16,0.569372,0.351946,421.673)">
                <path d="M171.91,69.07L166.94,71.44L159.48,103.66L183.31,103.66L177.39,71.44L171.91,69.07Z" style="fill:rgb(255,100,121);fill-rule:nonzero;"/>
            </g>
            <g transform="matrix(1.40778,2.05352e-16,2.05352e-16,0.569372,0.351946,421.673)">
                <path d="M181.47,89C182.27,89 182.92,87.7 182.92,86.1C182.92,84.5 182.27,83.2 181.47,83.2C180.67,83.2 180.02,84.5 180.02,86.1C180.02,87.7 180.67,89 181.47,89" style="fill:rgb(210,173,110);fill-rule:nonzero;"/>
                <path d="M179.63,87.62C180.2,87.72 180.85,86.78 181.07,85.51C181.29,84.24 181.01,83.13 180.44,83.03C179.87,82.93 179.22,83.88 178.99,85.14C178.76,86.4 179.05,87.52 179.63,87.62" style="fill:rgb(210,173,110);fill-rule:nonzero;"/>
            </g>
            <g transform="matrix(1.40778,2.05352e-16,2.05352e-16,0.569372,0.351946,421.673)">
                <path d="M175.77,123.81L168.53,123.81L168.53,122.36L172.87,120.91L175.77,120.91L175.77,123.81Z" style="fill:rgb(128,94,51);fill-rule:nonzero;"/>
            </g>
            <g transform="matrix(1.40778,2.05352e-16,2.05352e-16,0.569372,0.351946,421.673)">
                <path d="M170.62,123.81L163.37,123.81L163.37,122.36L167.72,120.91L170.62,120.91L170.62,123.81Z" style="fill:rgb(128,94,51);fill-rule:nonzero;"/>
            </g>
            <g transform="matrix(1.40778,2.05352e-16,2.05352e-16,0.569372,0.351946,421.673)">
                <path d="M164.38,39.29C164.624,40.532 164.658,41.807 164.48,43.06C164.1,44.022 163.854,45.031 163.75,46.06C163.57,47.69 162.91,48.25 163.05,49.67C163.19,51.09 162.25,50.21 161.27,52.38C160.29,54.55 161.9,55.55 161.8,56.09C161.7,56.63 162.8,55.74 163.09,56.62C163.38,57.5 165.09,56.18 165.09,56.18C165.09,56.18 166.33,53.74 166.59,53.27C167.198,51.508 167.702,49.711 168.1,47.89L166.72,36.89L164.38,39.29Z" style="fill:rgb(98,21,0);fill-rule:nonzero;"/>
                <path d="M169.56,47.21C171.71,47.21 173.44,44.7 173.44,41.61C173.44,38.52 171.7,36 169.56,36C167.42,36 165.67,38.51 165.67,41.61C165.67,44.71 167.41,47.21 169.56,47.21" style="fill:rgb(210,173,110);fill-rule:nonzero;"/>
                <path d="M172.34,33.34C171.62,33.48 168.42,35.97 168.34,36.99C168.26,38.01 165.04,38.99 165.04,38.99C165.04,38.99 164.54,39.45 164.41,39.37C165.51,32.28 171.07,32.95 172.41,33.37" style="fill:rgb(98,21,0);fill-rule:nonzero;"/>
            </g>
            <g transform="matrix(1.40778,2.05352e-16,2.05352e-16,0.569372,0.351946,421.673)">
                <path d="M148,87.4C148.79,87.4 149.43,86.12 149.43,84.54C149.43,82.96 148.79,81.68 148,81.68C147.21,81.68 146.57,82.96 146.57,84.54C146.57,86.12 147.21,87.4 148,87.4" style="fill:rgb(210,173,110);fill-rule:nonzero;"/>
                <path d="M146.17,86C146.74,86.1 147.37,85.17 147.59,83.92C147.81,82.67 147.53,81.57 146.96,81.47C146.39,81.37 145.76,82.3 145.54,83.55C145.32,84.8 145.6,85.9 146.17,85.99" style="fill:rgb(210,173,110);fill-rule:nonzero;"/>
            </g>
            <g transform="matrix(1.40778,2.05352e-16,2.05352e-16,0.569372,0.351946,421.673)">
                <path d="M132.41,46.44L132.76,47.53L133.94,47.53L133.94,46.44L132.41,46.44Z" style="fill:white;fill-rule:nonzero;"/>
            </g>
            <g transform="matrix(1.40778,2.05352e-16,2.05352e-16,0.569372,0.351946,421.673)">
                <path d="M134.72,45.35L131.76,48.21L131.76,52.94L134.72,45.35Z" style="fill:rgb(210,173,110);fill-rule:nonzero;"/>
            </g>
            <g transform="matrix(1.40778,2.05352e-16,2.05352e-16,0.569372,0.351946,421.673)">
                <path d="M148.67,81.75L147.23,59.52C147.23,54.52 145.32,50.23 141.67,48.21C141.11,49.3 139.08,50.11 136.67,50.11C134.26,50.11 132.22,49.3 131.67,48.21C128.02,50.21 126.11,54.53 126.11,59.52C126.11,59.52 128.33,82.52 130.73,82.76L130.67,85.65L132.67,121.31L135.58,121.31L136.58,84.23L136.7,84.23L137.7,121.31L140.61,121.31L142.61,85.68L144,82.09C146.4,81.88 148.67,81.76 148.67,81.76" style="fill:rgb(110,125,52);fill-rule:nonzero;"/>
            </g>
            <g transform="matrix(1.40778,2.05352e-16,2.05352e-16,0.569372,0.351946,421.673)">
                <clipPath id="_clip3">
                    <path d="M126.08,59.53C126.08,59.53 128.3,82.53 130.7,82.77L130.64,85.66L132.64,121.32L135.55,121.32L136.55,84.24L136.67,84.24L137.67,121.32L140.58,121.32L142.58,85.69L144,82.09C146.41,81.88 148.67,81.76 148.67,81.76L147.23,59.53C147.23,54.53 145.32,50.24 141.67,48.22C141.11,49.31 139.08,50.12 136.67,50.12C134.26,50.12 132.22,49.31 131.67,48.22C128.02,50.22 126.11,54.54 126.11,59.53"/>
                </clipPath>
                <g clip-path="url(#_clip3)">
                    <rect x="125.89" y="100.16" width="21.45" height="21.45" style="fill:rgb(210,173,110);"/>
                </g>
            </g>
            <g transform="matrix(1.40778,2.05352e-16,2.05352e-16,0.569372,0.351946,421.673)">
                <path d="M141.67,48.09C140.34,47.57 140.35,45.38 140.35,45.38C140.96,45.07 142.03,42.03 141.77,40.51C141.47,38.75 142.77,36.35 140.65,35.13C138.53,33.91 135.16,34.72 134.96,35.13C134.76,35.54 133.33,35.27 133.33,39.5C133.33,39.5 132.6,37.92 131.91,38.61C130.91,39.61 132.22,42.44 133.33,41.95L133.33,46.4L133.84,51.09L138.68,50.4L141.67,48.09Z" style="fill:rgb(210,173,110);fill-rule:nonzero;"/>
                <path d="M131.5,38.57C131.462,37.834 131.462,37.096 131.5,36.36C131.688,35.61 132.067,34.921 132.6,34.36C132.843,34.044 133.133,33.767 133.46,33.54C133.952,33.251 134.467,33.003 135,32.8C135.408,32.551 135.844,32.353 136.3,32.21C136.842,32.067 137.399,31.989 137.96,31.98C138.44,31.98 138.85,32.07 139.32,32.08C139.743,32.119 140.145,32.286 140.47,32.56C141.246,32.927 141.866,33.558 142.22,34.34C142.53,35.34 141.81,38.24 141.85,36.86C141.85,36.29 141.53,36.13 141.07,35.73C140.491,35.364 139.815,35.179 139.13,35.2C137.718,34.922 136.259,35.008 134.89,35.45C134.45,35.65 134.08,35.75 133.89,36.24C133.73,36.682 133.629,37.142 133.59,37.61C133.51,38.23 133.75,39.13 133.45,39.67C133.344,39.465 133.223,39.268 133.09,39.08C132.958,38.827 132.737,38.631 132.47,38.53C132.21,38.53 131.54,38.85 131.6,39.29" style="fill:rgb(105,77,40);fill-rule:nonzero;"/>
            </g>
            <g transform="matrix(1.40778,2.05352e-16,2.05352e-16,0.569372,0.351946,421.673)">
                <path d="M137.32,123.81L144.46,123.81L144.46,122.38L140.18,120.95L137.32,120.95L137.32,123.81Z" style="fill:rgb(183,157,0);fill-rule:nonzero;"/>
            </g>
            <g transform="matrix(1.40778,2.05352e-16,2.05352e-16,0.569372,0.351946,421.673)">
                <path d="M131.54,123.81L138.68,123.81L138.68,122.38L134.4,120.95L131.54,120.95L131.54,123.81Z" style="fill:rgb(183,157,0);fill-rule:nonzero;"/>
            </g>
            <g transform="matrix(1.40778,2.05352e-16,2.05352e-16,0.569372,0.351946,421.673)">
                <path d="M137.05,79.81L129.03,79.81L130.98,121.44L136.44,121.44L137.05,79.81Z" style="fill:rgb(74,144,189);fill-rule:nonzero;"/>
            </g>
            <g transform="matrix(1.40778,2.05352e-16,2.05352e-16,0.569372,0.351946,421.673)">
                <path d="M136.37,79.81L144.39,79.81L142.44,121.44L136.99,121.44L136.37,79.81Z" style="fill:rgb(74,144,189);fill-rule:nonzero;"/>
            </g>
            <g transform="matrix(1.40778,2.05352e-16,2.05352e-16,0.569372,0.351946,421.673)">
                <path d="M127.5,87.4C126.71,87.4 126.07,86.12 126.07,84.54C126.07,82.96 126.71,81.68 127.5,81.68C128.29,81.68 128.93,82.96 128.93,84.54C128.93,86.12 128.29,87.4 127.5,87.4" style="fill:rgb(210,173,110);fill-rule:nonzero;"/>
                <path d="M129.32,86C128.75,86.1 128.12,85.17 127.89,83.92C127.66,82.67 127.95,81.57 128.52,81.47C129.09,81.37 129.72,82.3 129.94,83.55C130.16,84.8 129.88,85.9 129.31,85.99" style="fill:rgb(210,173,110);fill-rule:nonzero;"/>
            </g>
            <g transform="matrix(1.40778,2.05352e-16,2.05352e-16,0.569372,0.351946,421.673)">
                <rect x="126.08" y="59.85" width="5.14" height="21.91" style="fill:rgb(110,125,52);"/>
            </g>
            <g transform="matrix(1.40778,2.05352e-16,2.05352e-16,0.569372,0.351946,421.673)">
                <path d="M138.4,52.34L140.28,50.17L138.11,50.46L135.93,50.17L137.82,52.34L135.93,71.08L138.11,73.1L140.28,71.08L138.4,52.34Z" style="fill:black;fill-rule:nonzero;"/>
            </g>
            <g transform="matrix(1.40778,2.05352e-16,2.05352e-16,0.569372,0.351946,421.673)">
                <path d="M138.05,50.27L136.36,53.64L131.23,48.43L132.41,46.44L138.05,50.27Z" style="fill:white;fill-rule:nonzero;"/>
            </g>
            <g transform="matrix(1.40778,2.05352e-16,2.05352e-16,0.569372,0.351946,421.673)">
                <path d="M138.75,50.27L140.02,52.94L141.99,48.43L140.8,47.14L138.75,50.27Z" style="fill:white;fill-rule:nonzero;"/>
            </g>
        </g>
    </g>
</svg>
