<?xml version="1.0" encoding="UTF-8" standalone="no"?>
<!DOCTYPE svg PUBLIC "-//W3C//DTD SVG 1.1//EN" "http://www.w3.org/Graphics/SVG/1.1/DTD/svg11.dtd">
<svg width="100%" height="100%" viewBox="0 0 400 850" version="1.1" xmlns="http://www.w3.org/2000/svg" xmlns:xlink="http://www.w3.org/1999/xlink" xml:space="preserve" style="fill-rule:evenodd;clip-rule:evenodd;stroke-linejoin:round;stroke-miterlimit:1.41421;">
    <g transform="matrix(1,0,0,1,-920,-0)">
        <g id="register" transform="matrix(1.02691,-4.65767e-18,-4.65767e-18,1.04593,-4.22007,8.31573)">
            <clipPath id="_clip1">
                <rect x="900" y="-7.951" width="389.518" height="812.676"/>
            </clipPath>
            <g clip-path="url(#_clip1)">
                <g transform="matrix(0.973794,4.33645e-18,4.33645e-18,0.956089,900.243,-7.95058)">
                    <path d="M245.29,279.57C245.29,279.57 513.48,-45.27 454,321C536.19,331.09 522,387.39 522,387.39L491.8,456.24L488.73,481.24C488.73,481.24 490.37,528.59 503.35,541.07C516.33,553.55 643.24,611.34 643.24,611.34C643.24,611.34 469,848.8 386.62,751.64C304.24,654.48 279,682.7 279,682.7C279,682.7 340.15,539.18 340.59,535.61C296.39,541.07 289.59,507.61 289.59,507.61C289.59,507.61 279.24,473.7 264.45,446.49C255.92,427.31 259.37,369.7 259.37,369.7C259.37,369.7 262.88,341.11 246.77,324.63C240.66,315.31 245.24,279.63 245.24,279.63" style="fill:rgb(215,139,46);fill-rule:nonzero;"/>
                </g>
                <g transform="matrix(0.973794,4.33645e-18,4.33645e-18,0.956089,900.243,-7.95058)">
                    <path d="M77.67,862.6C77.67,862.6 147.31,567.89 234.93,601.6C234.93,601.6 170.84,594.97 387.87,599.86C511.36,602.64 428.68,576.81 507.76,546.57C604.93,567.57 754.13,644.83 731.14,870.23L77.67,862.6Z" style="fill:rgb(24,152,71);fill-rule:nonzero;"/>
                </g>
                <g transform="matrix(0.973794,4.33645e-18,4.33645e-18,0.956089,900.243,-7.95058)">
                    <path d="M304.14,506.31L389.36,599.63L343.76,663.69L284.63,517.52L304.14,506.31Z" style="fill:white;fill-rule:nonzero;"/>
                </g>
                <g transform="matrix(0.973794,4.33645e-18,4.33645e-18,0.956089,900.243,-7.95058)">
                    <path d="M390.95,599.83L412.25,648.45L412.25,585.68L390.95,599.83Z" style="fill:white;fill-rule:nonzero;"/>
                </g>
                <g transform="matrix(0.973794,4.33645e-18,4.33645e-18,0.956089,900.243,-7.95058)">
                    <path d="M428.17,147.37C409.43,152.37 329.77,223.82 328.37,251.19C327.07,276.61 244.99,309.87 244.99,309.87C244.99,309.87 232.71,322.87 229.1,321.11C245.05,132.11 392.87,139.41 428.16,147.37" style="fill:rgb(98,21,0);fill-rule:nonzero;"/>
                </g>
                <g transform="matrix(0.973794,4.33645e-18,4.33645e-18,0.956089,900.243,-7.95058)">
                    <path d="M322,250.07C322,250.07 368.11,252.44 373.94,264.07C379.77,275.7 411.05,286.76 405.72,300.62C423.21,335.41 440.58,312.15 445.53,330.9C450.48,349.65 450.53,378.67 465.28,376.9C505.77,312.96 518.7,416.1 481.45,422.41C462.45,429.64 487.85,488.48 487.85,488.48C487.85,488.48 517.75,481.27 535.05,428.99C552.35,376.71 545.2,375.83 549.15,343.67C553.1,311.51 541,291.89 537.36,262.43C533.72,232.97 506.45,218.74 497.93,199.55C497.43,174.1 437.07,149.98 419.45,144.18C360.45,181.77 322,250.18 322,250.18" style="fill:rgb(98,21,0);fill-rule:nonzero;"/>
                </g>
                <g transform="matrix(0.973794,4.33645e-18,4.33645e-18,0.956089,900.243,-7.95058)">
                    <path d="M229.38,318.83C229.38,318.83 246.49,386.22 238.97,417.94C231.45,449.66 226.97,456.37 225.3,499.69C223.63,543.01 207.12,559.12 213.45,596.17C219.78,633.22 193.39,611.84 171.64,670.83C149.89,729.82 194.15,753.39 192.39,767.68C190.63,781.97 219.16,756.46 227.24,779.21C235.32,801.96 279.9,763.91 279.9,763.91C279.9,763.91 308.14,697.22 314,684.34C324.54,661.2 343.71,539.61 343.71,539.61L250.32,296L229.38,318.83Z" style="fill:rgb(98,21,0);fill-rule:nonzero;"/>
                </g>
                <g transform="matrix(0.973794,4.33645e-18,4.33645e-18,0.956089,900.243,-7.95058)">
                    <clipPath id="_clip2">
                        <path d="M255.71,309.94L242.4,603.01L386.19,502.79L283.06,308.76L255.71,309.94Z"/>
                    </clipPath>
                    <g clip-path="url(#_clip2)">
                        <path d="M245.29,279.57C245.29,279.57 513.48,-45.27 454,321C536.19,331.09 522,387.39 522,387.39L491.79,456.22L488.72,481.22C488.72,481.22 490.36,528.57 503.34,541.05C516.32,553.53 643.23,611.32 643.23,611.32C643.23,611.32 469,848.8 386.62,751.64C304.24,654.48 279,682.7 279,682.7C279,682.7 340.15,539.18 340.59,535.61C296.39,541.07 289.59,507.61 289.59,507.61C289.59,507.61 279.24,473.7 264.45,446.49C255.92,427.31 259.37,369.7 259.37,369.7C259.37,369.7 262.88,341.11 246.77,324.63C240.66,315.31 245.24,279.63 245.24,279.63" style="fill:rgb(215,139,46);fill-rule:nonzero;"/>
                    </g>
                </g>
            </g>
        </g>
    </g>
</svg>
