<?xml version="1.0" encoding="UTF-8" standalone="no"?>
<svg width="225px" height="46px" viewBox="0 0 225 46" version="1.1" xmlns="http://www.w3.org/2000/svg" xmlns:xlink="http://www.w3.org/1999/xlink">
    <!-- Generator: Sketch 3.8.2 (29753) - http://www.bohemiancoding.com/sketch -->
    <title>eufa_logo_erasmus</title>
    <desc>Created with Sketch.</desc>
    <defs>
        <polygon id="path-1" points="0.2075 18 14.6405 18 14.6405 0.1303 0.2075 0.1303"></polygon>
        <polygon id="path-3" points="0.8273 18 15.0313 18 15.0313 0.5403 0.8273 0.5403"></polygon>
    </defs>
    <g id="Page-1" stroke="none" stroke-width="1" fill="none" fill-rule="evenodd">
        <g id="erasmus" transform="translate(0.000000, -1.000000)">
            <g id="Page-1">
                <polygon id="Fill-1" fill="#004594" points="77.3694 23.645 77.3694 46.29 92.2884 46.29 92.2884 43.613 80.3804 43.613 80.3804 35.203 92.2884 35.203 92.2884 32.527 80.3804 32.527 80.3804 26.322 92.2884 26.322 92.2884 23.645"></polygon>
                <g id="Group-16" transform="translate(95.000000, 28.761500)">
                    <path d="M11.2616,3.6586 L11.1096,3.6586 C10.6836,3.5576 10.2706,3.4836 9.8696,3.4376 C9.4696,3.3926 8.9956,3.3696 8.4486,3.3696 C7.5666,3.3696 6.7146,3.5646 5.8936,3.9546 C5.0716,4.3456 4.2806,4.8506 3.5206,5.4686 L3.5206,17.5286 L0.6616,17.5286 L0.6616,0.5406 L3.5206,0.5406 L3.5206,3.0496 C4.6556,2.1376 5.6576,1.4916 6.5246,1.1116 C7.3906,0.7306 8.2756,0.5406 9.1786,0.5406 C9.6746,0.5406 10.0346,0.5536 10.2576,0.5796 C10.4806,0.6046 10.8156,0.6526 11.2616,0.7236 L11.2616,3.6586 Z" id="Fill-2" fill="#004594"></path>
                    <g id="Group-6" transform="translate(12.000000, 0.000000)">
                        <mask id="mask-2" fill="white">
                            <use xlink:href="#path-1"></use>
                        </mask>
                        <g id="Clip-5"></g>
                        <path d="M14.6405,17.5283 L11.7965,17.5283 L11.7965,15.7193 C11.5425,15.8913 11.2005,16.1323 10.7705,16.4413 C10.3385,16.7503 9.9205,16.9963 9.5155,17.1793 C9.0385,17.4113 8.4905,17.6073 7.8725,17.7643 C7.2545,17.9213 6.5295,18.0003 5.6985,18.0003 C4.1665,18.0003 2.8695,17.4933 1.8045,16.4793 C0.7405,15.4653 0.2075,14.1723 0.2075,12.6013 C0.2075,11.3133 0.4835,10.2713 1.0365,9.4753 C1.5895,8.6803 2.3775,8.0543 3.4015,7.5973 C4.4355,7.1413 5.6775,6.8323 7.1275,6.6703 C8.5775,6.5073 10.1335,6.3863 11.7965,6.3053 L11.7965,5.8633 C11.7965,5.2153 11.6825,4.6773 11.4545,4.2513 C11.2265,3.8263 10.8985,3.4913 10.4735,3.2473 C10.0675,3.0143 9.5815,2.8573 9.0135,2.7763 C8.4455,2.6953 7.8525,2.6553 7.2335,2.6553 C6.4835,2.6553 5.6475,2.7533 4.7245,2.9513 C3.8015,3.1493 2.8485,3.4353 1.8655,3.8103 L1.7135,3.8103 L1.7135,0.9053 C2.2705,0.7543 3.0765,0.5863 4.1315,0.4043 C5.1855,0.2213 6.2245,0.1303 7.2495,0.1303 C8.4455,0.1303 9.4865,0.2293 10.3745,0.4263 C11.2615,0.6243 12.0295,0.9623 12.6785,1.4383 C13.3175,1.9053 13.8035,2.5083 14.1385,3.2473 C14.4735,3.9883 14.6405,4.9053 14.6405,6.0003 L14.6405,17.5283 Z M11.7965,13.3463 L11.7965,8.6163 C10.9245,8.6673 9.8975,8.7433 8.7165,8.8443 C7.5355,8.9463 6.5995,9.0933 5.9105,9.2853 C5.0895,9.5193 4.4255,9.8813 3.9185,10.3733 C3.4115,10.8653 3.1585,11.5413 3.1585,12.4033 C3.1585,13.3763 3.4515,14.1093 4.0405,14.6003 C4.6285,15.0923 5.5255,15.3383 6.7325,15.3383 C7.7355,15.3383 8.6535,15.1433 9.4845,14.7533 C10.3155,14.3623 11.0865,13.8943 11.7965,13.3463 L11.7965,13.3463 Z" id="Fill-4" fill="#004594" mask="url(#mask-2)"></path>
                    </g>
                    <path d="M43.198,12.6311 C43.198,14.1821 42.557,15.4551 41.274,16.4481 C39.991,17.4421 38.24,17.9391 36.02,17.9391 C34.762,17.9391 33.609,17.7891 32.56,17.4901 C31.511,17.1911 30.631,16.8651 29.921,16.5091 L29.921,13.3001 L30.073,13.3001 C30.975,13.9801 31.979,14.5191 33.084,14.9201 C34.19,15.3211 35.249,15.5211 36.263,15.5211 C37.52,15.5211 38.504,15.3181 39.213,14.9131 C39.923,14.5071 40.278,13.8681 40.278,12.9961 C40.278,12.3271 40.085,11.8201 39.7,11.4751 C39.314,11.1311 38.574,10.8371 37.48,10.5931 C37.074,10.5021 36.544,10.3961 35.89,10.2741 C35.236,10.1521 34.64,10.0211 34.103,9.8791 C32.613,9.4831 31.556,8.9031 30.932,8.1371 C30.309,7.3721 29.997,6.4321 29.997,5.3161 C29.997,4.6161 30.142,3.9581 30.43,3.3391 C30.72,2.7211 31.158,2.1681 31.746,1.6821 C32.314,1.2051 33.036,0.8271 33.913,0.5481 C34.79,0.2701 35.771,0.1301 36.856,0.1301 C37.87,0.1301 38.896,0.2541 39.935,0.5031 C40.975,0.7511 41.839,1.0531 42.529,1.4081 L42.529,4.4651 L42.377,4.4651 C41.647,3.9271 40.759,3.4731 39.715,3.1031 C38.671,2.7331 37.647,2.5481 36.643,2.5481 C35.599,2.5481 34.717,2.7481 33.997,3.1491 C33.277,3.5501 32.917,4.1451 32.917,4.9361 C32.917,5.6351 33.135,6.1631 33.571,6.5171 C33.997,6.8731 34.686,7.1621 35.64,7.3841 C36.166,7.5061 36.757,7.6281 37.411,7.7491 C38.065,7.8711 38.61,7.9831 39.046,8.0841 C40.374,8.3881 41.398,8.9101 42.118,9.6501 C42.838,10.4011 43.198,11.3941 43.198,12.6311" id="Fill-7" fill="#004594"></path>
                    <path d="M71.0228,17.5283 L68.1638,17.5283 L68.1638,7.8563 C68.1638,7.1263 68.1308,6.4213 68.0648,5.7423 C67.9988,5.0633 67.8588,4.5203 67.6468,4.1143 C67.4128,3.6793 67.0788,3.3493 66.6428,3.1263 C66.2068,2.9033 65.5778,2.7913 64.7568,2.7913 C63.9558,2.7913 63.1548,2.9923 62.3538,3.3923 C61.5528,3.7933 60.7518,4.3023 59.9508,4.9213 C59.9818,5.1543 60.0068,5.4253 60.0268,5.7343 C60.0478,6.0433 60.0578,6.3503 60.0578,6.6553 L60.0578,17.5283 L57.1988,17.5283 L57.1988,7.8563 C57.1988,7.1053 57.1658,6.3933 57.0998,5.7193 C57.0338,5.0453 56.8938,4.5053 56.6818,4.0993 C56.4478,3.6633 56.1138,3.3363 55.6778,3.1183 C55.2418,2.9013 54.6128,2.7913 53.7918,2.7913 C53.0108,2.7913 52.2278,2.9843 51.4418,3.3693 C50.6558,3.7553 49.8728,4.2473 49.0918,4.8453 L49.0918,17.5283 L46.2328,17.5283 L46.2328,0.5403 L49.0918,0.5403 L49.0918,2.4263 C49.9848,1.6873 50.8738,1.1083 51.7618,0.6933 C52.6488,0.2773 53.5938,0.0693 54.5978,0.0693 C55.7538,0.0693 56.7348,0.3133 57.5408,0.7993 C58.3468,1.2863 58.9478,1.9603 59.3428,2.8223 C60.4988,1.8483 61.5528,1.1473 62.5058,0.7163 C63.4588,0.2843 64.4778,0.0693 65.5628,0.0693 C67.4288,0.0693 68.8048,0.6343 69.6918,1.7653 C70.5788,2.8953 71.0228,4.4743 71.0228,6.5023 L71.0228,17.5283 Z" id="Fill-9" fill="#004594"></path>
                    <g id="Group-13" transform="translate(74.000000, 0.000000)">
                        <mask id="mask-4" fill="white">
                            <use xlink:href="#path-3"></use>
                        </mask>
                        <g id="Clip-12"></g>
                        <path d="M15.0313,17.5283 L12.1723,17.5283 L12.1723,15.6423 C11.2083,16.4033 10.2863,16.9863 9.4043,17.3913 C8.5223,17.7973 7.5483,18.0003 6.4843,18.0003 C4.6993,18.0003 3.3103,17.4553 2.3173,16.3653 C1.3233,15.2753 0.8273,13.6763 0.8273,11.5673 L0.8273,0.5403 L3.6863,0.5403 L3.6863,10.2133 C3.6863,11.0753 3.7263,11.8123 3.8083,12.4263 C3.8893,13.0393 4.0613,13.5643 4.3243,14.0003 C4.5983,14.4463 4.9533,14.7713 5.3893,14.9733 C5.8253,15.1763 6.4583,15.2773 7.2903,15.2773 C8.0303,15.2773 8.8393,15.0853 9.7163,14.6993 C10.5933,14.3143 11.4123,13.8223 12.1723,13.2243 L12.1723,0.5403 L15.0313,0.5403 L15.0313,17.5283 Z" id="Fill-11" fill="#004594" mask="url(#mask-4)"></path>
                    </g>
                    <path d="M105.7262,12.6311 C105.7262,14.1821 105.0852,15.4551 103.8022,16.4481 C102.5202,17.4421 100.7682,17.9391 98.5482,17.9391 C97.2912,17.9391 96.1372,17.7891 95.0882,17.4901 C94.0392,17.1911 93.1592,16.8651 92.4492,16.5091 L92.4492,13.3001 L92.6022,13.3001 C93.5042,13.9801 94.5082,14.5191 95.6132,14.9201 C96.7182,15.3211 97.7772,15.5211 98.7912,15.5211 C100.0482,15.5211 101.0322,15.3181 101.7422,14.9131 C102.4512,14.5071 102.8062,13.8681 102.8062,12.9961 C102.8062,12.3271 102.6132,11.8201 102.2282,11.4751 C101.8432,11.1311 101.1032,10.8371 100.0082,10.5931 C99.6022,10.5021 99.0732,10.3961 98.4192,10.2741 C97.7642,10.1521 97.1692,10.0211 96.6322,9.8791 C95.1412,9.4831 94.0842,8.9031 93.4612,8.1371 C92.8372,7.3721 92.5262,6.4321 92.5262,5.3161 C92.5262,4.6161 92.6702,3.9581 92.9592,3.3391 C93.2482,2.7211 93.6862,2.1681 94.2742,1.6821 C94.8422,1.2051 95.5652,0.8271 96.4412,0.5481 C97.3182,0.2701 98.2992,0.1301 99.3842,0.1301 C100.3982,0.1301 101.4242,0.2541 102.4642,0.5031 C103.5032,0.7511 104.3682,1.0531 105.0572,1.4081 L105.0572,4.4651 L104.9052,4.4651 C104.1752,3.9271 103.2882,3.4731 102.2432,3.1031 C101.1992,2.7331 100.1752,2.5481 99.1712,2.5481 C98.1272,2.5481 97.2452,2.7481 96.5252,3.1491 C95.8052,3.5501 95.4452,4.1451 95.4452,4.9361 C95.4452,5.6351 95.6632,6.1631 96.0992,6.5171 C96.5252,6.8731 97.2152,7.1621 98.1682,7.3841 C98.6952,7.5061 99.2852,7.6281 99.9392,7.7491 C100.5932,7.8711 101.1382,7.9831 101.5742,8.0841 C102.9022,8.3881 103.9272,8.9101 104.6462,9.6501 C105.3662,10.4011 105.7262,11.3941 105.7262,12.6311" id="Fill-14" fill="#004594"></path>
                </g>
                <polygon id="Fill-17" fill="#004594" points="213.8625 26.8688 213.8625 35.1568 205.5745 35.1568 205.5745 37.5908 213.8625 37.5908 213.8625 45.8798 216.3865 45.8798 216.3865 37.5908 224.6755 37.5908 224.6755 35.1568 216.3865 35.1568 216.3865 26.8688"></polygon>
                <polygon id="Fill-18" fill="#004594" points="0 46.2885 67.934 46.2885 67.934 0.9995 0 0.9995"></polygon>
                <polygon id="Fill-19" fill="#FFEE00" points="33.9701 6.0321 34.5301 7.7801 36.3601 7.7721 34.8721 8.8431 35.4471 10.5831 33.9701 9.4991 32.4901 10.5841 33.0651 8.8431 31.5741 7.7721 33.4081 7.7801"></polygon>
                <polygon id="Fill-20" fill="#FFEE00" points="26.4218 8.0547 26.9818 9.8027 28.8118 9.7947 27.3238 10.8657 27.8988 12.6057 26.4218 11.5217 24.9418 12.6067 25.5168 10.8657 24.0258 9.7947 25.8598 9.8027"></polygon>
                <polygon id="Fill-21" fill="#FFEE00" points="20.8967 13.5804 21.4557 15.3284 23.2867 15.3204 21.7987 16.3914 22.3737 18.1314 20.8967 17.0474 19.4157 18.1324 19.9907 16.3914 18.5007 15.3204 20.3347 15.3284"></polygon>
                <polygon id="Fill-22" fill="#FFEE00" points="18.8746 21.1287 19.4336 22.8767 21.2646 22.8687 19.7766 23.9397 20.3516 25.6797 18.8746 24.5957 17.3936 25.6807 17.9686 23.9397 16.4786 22.8687 18.3126 22.8767"></polygon>
                <polygon id="Fill-23" fill="#FFEE00" points="20.8972 28.6767 21.4562 30.4247 23.2872 30.4167 21.7992 31.4877 22.3742 33.2277 20.8962 32.1437 19.4162 33.2297 19.9912 31.4877 18.5012 30.4167 20.3352 30.4247"></polygon>
                <polygon id="Fill-24" fill="#FFEE00" points="26.4229 34.2024 26.9819 35.9504 28.8129 35.9424 27.3249 37.0134 27.8999 38.7534 26.4219 37.6694 24.9419 38.7544 25.5169 37.0134 24.0269 35.9424 25.8609 35.9504"></polygon>
                <polygon id="Fill-25" fill="#FFEE00" points="33.9717 36.2243 34.5307 37.9723 36.3617 37.9643 34.8737 39.0353 35.4487 40.7753 33.9707 39.6913 32.4907 40.7763 33.0657 39.0353 31.5757 37.9643 33.4107 37.9723"></polygon>
                <polygon id="Fill-26" fill="#FFEE00" points="41.5194 34.2019 42.0784 35.9489 43.9094 35.9419 42.4204 37.0119 42.9964 38.7529 41.5184 37.6679 40.0384 38.7539 40.6134 37.0129 39.1234 35.9419 40.9574 35.9489"></polygon>
                <polygon id="Fill-27" fill="#FFEE00" points="47.0449 28.676 47.6039 30.424 49.4349 30.416 47.9459 31.487 48.5219 33.227 47.0439 32.143 45.5639 33.228 46.1389 31.487 44.6489 30.416 46.4829 30.424"></polygon>
                <polygon id="Fill-28" fill="#FFEE00" points="49.0675 21.1274 49.6265 22.8744 51.4575 22.8674 49.9685 23.9384 50.5445 25.6784 49.0665 24.5944 47.5865 25.6794 48.1615 23.9384 46.6715 22.8674 48.5055 22.8744"></polygon>
                <polygon id="Fill-29" fill="#FFEE00" points="47.0449 13.5799 47.6039 15.3279 49.4339 15.3199 47.9459 16.3909 48.5219 18.1309 47.0439 17.0469 45.5639 18.1329 46.1389 16.3909 44.6489 15.3199 46.4829 15.3279"></polygon>
                <polygon id="Fill-30" fill="#FFEE00" points="41.5189 8.0547 42.0779 9.8017 43.9079 9.7947 42.4199 10.8657 42.9949 12.6057 41.5179 11.5217 40.0379 12.6077 40.6129 10.8657 39.1229 9.7947 40.9569 9.8017"></polygon>
            </g>
        </g>
    </g>
</svg>