<?xml version="1.0" standalone="no"?>
<!DOCTYPE svg PUBLIC "-//W3C//DTD SVG 1.1//EN" "http://www.w3.org/Graphics/SVG/1.1/DTD/svg11.dtd">
<svg width="100%" height="100%" viewBox="0 0 225 46" version="1.1" xmlns="http://www.w3.org/2000/svg" xmlns:xlink="http://www.w3.org/1999/xlink" xml:space="preserve" style="fill-rule:evenodd;clip-rule:evenodd;stroke-linejoin:round;stroke-miterlimit:1.41421;">
    <g id="Page-1">
        <path id="Fill-1" d="M77.369,22.645l0,22.645l14.919,0l0,-2.677l-11.908,0l0,-8.41l11.908,0l0,-2.676l-11.908,0l0,-6.205l11.908,0l0,-2.677l-14.919,0Z" style="fill:#004594;"/>
        <path id="Fill-2" d="M106.262,31.42l-0.152,0c-0.426,-0.101 -0.839,-0.175 -1.24,-0.221c-0.4,-0.045 -0.874,-0.068 -1.421,-0.068c-0.882,0 -1.734,0.195 -2.555,0.585c-0.822,0.391 -1.613,0.896 -2.373,1.514l0,12.06l-2.859,0l0,-16.988l2.859,0l0,2.509c1.135,-0.912 2.137,-1.558 3.004,-1.938c0.866,-0.381 1.751,-0.571 2.654,-0.571c0.496,0 0.856,0.013 1.079,0.039c0.223,0.025 0.558,0.073 1.004,0.144l0,2.935Z" style="fill:#004594;"/>
        <path id="Fill-4" d="M121.641,45.29l-2.845,0l0,-1.809c-0.254,0.172 -0.596,0.413 -1.026,0.722c-0.432,0.309 -0.85,0.555 -1.255,0.738c-0.477,0.232 -1.025,0.428 -1.643,0.585c-0.618,0.157 -1.343,0.236 -2.174,0.236c-1.532,0 -2.829,-0.507 -3.894,-1.521c-1.064,-1.014 -1.597,-2.307 -1.597,-3.878c0,-1.288 0.276,-2.33 0.829,-3.126c0.553,-0.795 1.341,-1.421 2.365,-1.878c1.035,-0.456 2.276,-0.765 3.727,-0.927c1.45,-0.163 3.005,-0.284 4.668,-0.365l0,-0.442c0,-0.648 -0.114,-1.186 -0.342,-1.612c-0.228,-0.425 -0.556,-0.76 -0.981,-1.004c-0.406,-0.233 -0.892,-0.39 -1.46,-0.471c-0.568,-0.081 -1.161,-0.121 -1.78,-0.121c-0.75,0 -1.586,0.098 -2.509,0.296c-0.923,0.198 -1.876,0.484 -2.859,0.859l-0.152,0l0,-2.905c0.557,-0.151 1.363,-0.319 2.418,-0.501c1.054,-0.183 2.093,-0.274 3.118,-0.274c1.196,0 2.237,0.099 3.125,0.296c0.887,0.198 1.655,0.536 2.304,1.012c0.639,0.467 1.125,1.07 1.46,1.809c0.335,0.741 0.502,1.658 0.502,2.753l0,11.528ZM118.797,41.108l-0.001,-4.73c-0.871,0.051 -1.898,0.127 -3.079,0.228c-1.181,0.102 -2.117,0.249 -2.807,0.441c-0.82,0.234 -1.484,0.596 -1.992,1.088c-0.506,0.492 -0.759,1.168 -0.759,2.03c0,0.973 0.293,1.706 0.882,2.197c0.588,0.492 1.484,0.738 2.692,0.738c1.002,0 1.92,-0.195 2.751,-0.585c0.831,-0.391 1.602,-0.859 2.312,-1.407Z" style="fill:#004594;"/>
        <path id="Fill-7" d="M138.198,40.393c0,1.551 -0.641,2.824 -1.924,3.817c-1.283,0.994 -3.034,1.491 -5.254,1.491c-1.258,0 -2.411,-0.15 -3.46,-0.449c-1.049,-0.299 -1.929,-0.625 -2.639,-0.981l0,-3.209l0.152,0c0.902,0.68 1.906,1.219 3.011,1.62c1.106,0.401 2.165,0.601 3.179,0.601c1.257,0 2.241,-0.203 2.95,-0.608c0.71,-0.406 1.065,-1.045 1.065,-1.917c0,-0.669 -0.193,-1.176 -0.578,-1.521c-0.386,-0.344 -1.126,-0.638 -2.22,-0.882c-0.406,-0.091 -0.936,-0.197 -1.59,-0.319c-0.654,-0.122 -1.25,-0.253 -1.787,-0.395c-1.49,-0.396 -2.547,-0.976 -3.171,-1.742c-0.623,-0.765 -0.935,-1.705 -0.935,-2.821c0,-0.7 0.145,-1.358 0.433,-1.977c0.29,-0.618 0.728,-1.171 1.316,-1.657c0.568,-0.477 1.29,-0.855 2.167,-1.134c0.877,-0.278 1.858,-0.418 2.943,-0.418c1.014,0 2.04,0.124 3.079,0.373c1.04,0.248 1.904,0.55 2.594,0.905l0,3.057l-0.152,0c-0.73,-0.538 -1.618,-0.992 -2.662,-1.362c-1.044,-0.37 -2.068,-0.555 -3.072,-0.555c-1.044,0 -1.926,0.2 -2.646,0.601c-0.72,0.401 -1.08,0.996 -1.08,1.787c0,0.699 0.218,1.227 0.654,1.581c0.426,0.356 1.115,0.645 2.069,0.867c0.526,0.122 1.117,0.244 1.771,0.365c0.654,0.122 1.199,0.234 1.635,0.335c1.328,0.304 2.352,0.826 3.072,1.566c0.72,0.751 1.08,1.744 1.08,2.981" style="fill:#004594;"/>
        <path id="Fill-9" d="M166.023,45.29l-2.859,0l0,-9.672c0,-0.73 -0.033,-1.435 -0.099,-2.114c-0.066,-0.679 -0.206,-1.222 -0.418,-1.628c-0.234,-0.435 -0.568,-0.765 -1.004,-0.988c-0.436,-0.223 -1.065,-0.335 -1.886,-0.335c-0.801,0 -1.602,0.201 -2.403,0.601c-0.801,0.401 -1.602,0.91 -2.403,1.529c0.031,0.233 0.056,0.504 0.076,0.813c0.021,0.309 0.031,0.616 0.031,0.921l0,10.873l-2.859,0l0,-9.672c0,-0.751 -0.033,-1.463 -0.099,-2.137c-0.066,-0.674 -0.206,-1.214 -0.418,-1.62c-0.234,-0.436 -0.568,-0.763 -1.004,-0.981c-0.436,-0.217 -1.065,-0.327 -1.886,-0.327c-0.781,0 -1.564,0.193 -2.35,0.578c-0.786,0.386 -1.569,0.878 -2.35,1.476l0,12.683l-2.859,0l0,-16.988l2.859,0l0,1.886c0.893,-0.739 1.782,-1.318 2.67,-1.733c0.887,-0.416 1.832,-0.624 2.836,-0.624c1.156,0 2.137,0.244 2.943,0.73c0.806,0.487 1.407,1.161 1.802,2.023c1.156,-0.974 2.21,-1.675 3.163,-2.106c0.953,-0.432 1.972,-0.647 3.057,-0.647c1.866,0 3.242,0.565 4.129,1.696c0.887,1.13 1.331,2.709 1.331,4.737l0,11.026Z" style="fill:#004594;"/>
        <path id="Fill-11" d="M184.031,45.29l-2.859,0l0,-1.886c-0.964,0.761 -1.886,1.344 -2.768,1.749c-0.882,0.406 -1.856,0.609 -2.92,0.609c-1.785,0 -3.174,-0.545 -4.167,-1.635c-0.994,-1.09 -1.49,-2.689 -1.49,-4.798l0,-11.027l2.859,0l0,9.673c0,0.862 0.04,1.599 0.122,2.213c0.081,0.613 0.253,1.138 0.516,1.574c0.274,0.446 0.629,0.771 1.065,0.973c0.436,0.203 1.069,0.304 1.901,0.304c0.74,0 1.549,-0.192 2.426,-0.578c0.877,-0.385 1.696,-0.877 2.456,-1.475l0,-12.684l2.859,0l0,16.988Z" style="fill:#004594;"/>
        <path id="Fill-14" d="M200.726,40.393c0,1.551 -0.641,2.824 -1.924,3.817c-1.282,0.994 -3.034,1.491 -5.254,1.491c-1.257,0 -2.411,-0.15 -3.46,-0.449c-1.049,-0.299 -1.929,-0.625 -2.639,-0.981l0,-3.209l0.153,0c0.902,0.68 1.906,1.219 3.011,1.62c1.105,0.401 2.164,0.601 3.178,0.601c1.257,0 2.241,-0.203 2.951,-0.608c0.709,-0.406 1.064,-1.045 1.064,-1.917c0,-0.669 -0.193,-1.176 -0.578,-1.521c-0.385,-0.344 -1.125,-0.638 -2.22,-0.882c-0.406,-0.091 -0.935,-0.197 -1.589,-0.319c-0.655,-0.122 -1.25,-0.253 -1.787,-0.395c-1.491,-0.396 -2.548,-0.976 -3.171,-1.742c-0.624,-0.765 -0.935,-1.705 -0.935,-2.821c0,-0.7 0.144,-1.358 0.433,-1.977c0.289,-0.618 0.727,-1.171 1.315,-1.657c0.568,-0.477 1.291,-0.855 2.167,-1.134c0.877,-0.278 1.858,-0.418 2.943,-0.418c1.014,0 2.04,0.124 3.08,0.373c1.039,0.248 1.904,0.55 2.593,0.905l0,3.057l-0.152,0c-0.73,-0.538 -1.617,-0.992 -2.662,-1.362c-1.044,-0.37 -2.068,-0.555 -3.072,-0.555c-1.044,0 -1.926,0.2 -2.646,0.601c-0.72,0.401 -1.08,0.996 -1.08,1.787c0,0.699 0.218,1.227 0.654,1.581c0.426,0.356 1.116,0.645 2.069,0.867c0.527,0.122 1.117,0.244 1.771,0.365c0.654,0.122 1.199,0.234 1.635,0.335c1.328,0.304 2.353,0.826 3.072,1.566c0.72,0.751 1.08,1.744 1.08,2.981" style="fill:#004594;"/>
        <path id="Fill-17" d="M213.863,25.869l0,8.288l-8.289,0l0,2.434l8.289,0l0,8.289l2.524,0l0,-8.289l8.289,0l0,-2.434l-8.289,0l0,-8.288l-2.524,0Z" style="fill:#004594;"/>
        <rect id="Fill-18" x="0" y="0" width="67.934" height="45.289" style="fill:#004594;"/>
        <path id="Fill-19" d="M33.97,5.032l0.56,1.748l1.83,-0.008l-1.488,1.071l0.575,1.74l-1.477,-1.084l-1.48,1.085l0.575,-1.741l-1.491,-1.071l1.834,0.008l0.562,-1.748Z" style="fill:#fe0;"/>
        <path id="Fill-20" d="M26.422,7.055l0.56,1.748l1.83,-0.008l-1.488,1.071l0.575,1.74l-1.477,-1.084l-1.48,1.085l0.575,-1.741l-1.491,-1.071l1.834,0.008l0.562,-1.748Z" style="fill:#fe0;"/>
        <path id="Fill-21" d="M20.897,12.58l0.559,1.748l1.831,-0.008l-1.488,1.071l0.575,1.74l-1.477,-1.084l-1.481,1.085l0.575,-1.741l-1.49,-1.071l1.834,0.008l0.562,-1.748Z" style="fill:#fe0;"/>
        <path id="Fill-22" d="M18.875,20.129l0.559,1.748l1.831,-0.008l-1.488,1.071l0.575,1.74l-1.477,-1.084l-1.481,1.085l0.575,-1.741l-1.49,-1.071l1.834,0.008l0.562,-1.748Z" style="fill:#fe0;"/>
        <path id="Fill-23" d="M20.897,27.677l0.559,1.748l1.831,-0.008l-1.488,1.071l0.575,1.74l-1.478,-1.084l-1.48,1.086l0.575,-1.742l-1.49,-1.071l1.834,0.008l0.562,-1.748Z" style="fill:#fe0;"/>
        <path id="Fill-24" d="M26.423,33.202l0.559,1.748l1.831,-0.008l-1.488,1.071l0.575,1.74l-1.478,-1.084l-1.48,1.085l0.575,-1.741l-1.49,-1.071l1.834,0.008l0.562,-1.748Z" style="fill:#fe0;"/>
        <path id="Fill-25" d="M33.972,35.224l0.559,1.748l1.831,-0.008l-1.488,1.071l0.575,1.74l-1.478,-1.084l-1.48,1.085l0.575,-1.741l-1.49,-1.071l1.835,0.008l0.561,-1.748Z" style="fill:#fe0;"/>
        <path id="Fill-26" d="M41.519,33.202l0.559,1.747l1.831,-0.007l-1.489,1.07l0.576,1.741l-1.478,-1.085l-1.48,1.086l0.575,-1.741l-1.49,-1.071l1.834,0.007l0.562,-1.747Z" style="fill:#fe0;"/>
        <path id="Fill-27" d="M47.045,27.676l0.559,1.748l1.831,-0.008l-1.489,1.071l0.576,1.74l-1.478,-1.084l-1.48,1.085l0.575,-1.741l-1.49,-1.071l1.834,0.008l0.562,-1.748Z" style="fill:#fe0;"/>
        <path id="Fill-28" d="M49.068,20.127l0.559,1.747l1.831,-0.007l-1.489,1.071l0.575,1.74l-1.478,-1.084l-1.48,1.085l0.575,-1.741l-1.49,-1.071l1.834,0.007l0.562,-1.747Z" style="fill:#fe0;"/>
        <path id="Fill-29" d="M47.045,12.58l0.559,1.748l1.83,-0.008l-1.488,1.071l0.576,1.74l-1.478,-1.084l-1.48,1.086l0.575,-1.742l-1.49,-1.071l1.834,0.008l0.562,-1.748Z" style="fill:#fe0;"/>
        <path id="Fill-30" d="M41.519,7.055l0.559,1.747l1.83,-0.007l-1.488,1.071l0.575,1.74l-1.477,-1.084l-1.48,1.086l0.575,-1.742l-1.49,-1.071l1.834,0.007l0.562,-1.747Z" style="fill:#fe0;"/>
    </g>
</svg>
