<?xml version="1.0" standalone="no"?><!DOCTYPE svg PUBLIC "-//W3C//DTD SVG 1.1//EN" "http://www.w3.org/Graphics/SVG/1.1/DTD/svg11.dtd"><svg width="100%" height="100%" viewBox="0 0 132 124" version="1.1" xmlns="http://www.w3.org/2000/svg" xmlns:xlink="http://www.w3.org/1999/xlink" xml:space="preserve" style="fill-rule:evenodd;clip-rule:evenodd;stroke-linejoin:round;stroke-miterlimit:1.41421;"><g><g><path d="M123.3,110.8l0,9.5l2.6,0l0,-6.9c0.2,-0.3 0.4,-0.4 0.7,-0.6c0.3,-0.1 0.6,-0.2 0.9,-0.2c0.5,0 0.9,0.1 1.2,0.4c0.3,0.3 0.4,0.7 0.4,1.4l0,5.9l2.6,0l0,-5.9c0,-1.3 -0.3,-2.2 -0.8,-2.8c-0.5,-0.6 -1.3,-0.9 -2.2,-0.9c-0.6,0 -1.1,0.1 -1.5,0.4c-0.5,0.3 -0.8,0.6 -1.2,1.1l-0.1,-1.4l-2.6,0ZM115.3,115.4c0,-0.8 0.2,-1.5 0.5,-2c0.3,-0.5 0.8,-0.8 1.4,-0.8c0.7,0 1.2,0.3 1.5,0.8c0.3,0.5 0.5,1.2 0.5,2.1l0,0.2c0,0.9 -0.2,1.5 -0.5,2.1c-0.3,0.5 -0.8,0.8 -1.4,0.8c-0.7,0 -1.2,-0.3 -1.5,-0.8c-0.3,-0.5 -0.5,-1.2 -0.5,-2.1l0,-0.3ZM112.7,115.6c0,1.4 0.4,2.6 1.2,3.5c0.8,0.9 1.9,1.3 3.3,1.3c1.4,0 2.5,-0.4 3.3,-1.3c0.8,-0.9 1.2,-2.1 1.2,-3.5l0,-0.2c0,-1.4 -0.4,-2.6 -1.2,-3.5c-0.8,-0.9 -1.9,-1.3 -3.3,-1.3c-1.4,0 -2.5,0.4 -3.3,1.4c-0.8,0.9 -1.2,2.1 -1.2,3.5l0,0.1ZM110.8,106.6l-2.6,0l0,1.9l2.6,0l0,-1.9ZM110.8,110.8l-2.6,0l0,9.5l2.6,0l0,-9.5ZM102.2,108.5l0,2.3l-1.4,0l0,1.8l1.4,0l0,4.8c0,1 0.2,1.8 0.7,2.3c0.5,0.5 1.2,0.7 2,0.7c0.3,0 0.6,0 0.8,-0.1c0.2,0 0.5,-0.1 0.8,-0.2l-0.2,-1.8c-0.1,0 -0.2,0.1 -0.3,0.1c-0.1,0 -0.2,0 -0.3,0c-0.3,0 -0.5,-0.1 -0.6,-0.2c-0.2,-0.2 -0.2,-0.4 -0.2,-0.8l0,-4.8l1.6,0l0,-1.8l-1.6,0l0,-2.3l-2.7,0ZM94.3,118.3c-0.2,-0.2 -0.3,-0.4 -0.3,-0.8c0,-0.4 0.1,-0.7 0.4,-1c0.3,-0.3 0.7,-0.4 1.2,-0.4l1.4,0l0,1.3c-0.1,0.3 -0.4,0.5 -0.7,0.8c-0.3,0.2 -0.7,0.3 -1.2,0.3c-0.3,0.1 -0.6,0 -0.8,-0.2M100,120.3c-0.1,-0.4 -0.3,-0.8 -0.3,-1.2c-0.1,-0.4 -0.1,-0.8 -0.1,-1.2l0,-3.9c0,-1.1 -0.4,-1.9 -1.1,-2.5c-0.7,-0.6 -1.6,-0.9 -2.8,-0.9c-1.2,0 -2.2,0.3 -2.9,0.9c-0.7,0.6 -1.1,1.3 -1,2.1l0,0.1l2.5,0c0,-0.4 0.1,-0.6 0.3,-0.8c0.2,-0.2 0.5,-0.3 1,-0.3c0.5,0 0.8,0.1 1.1,0.4c0.2,0.3 0.4,0.6 0.4,1.1l0,0.8l-1.4,0c-1.4,0 -2.4,0.3 -3.1,0.8c-0.7,0.5 -1.1,1.2 -1.1,2.2c0,0.9 0.3,1.6 0.8,2.1c0.5,0.5 1.3,0.8 2.3,0.8c0.6,0 1.1,-0.2 1.5,-0.5c0.4,-0.3 0.8,-0.7 1,-1.1c0,0.2 0.1,0.5 0.1,0.7c0,0.2 0.1,0.5 0.2,0.7l2.6,0l0,-0.3ZM87.2,118.4c-0.2,0.2 -0.6,0.3 -1.1,0.3c-0.5,0 -0.9,-0.1 -1.2,-0.3c-0.3,-0.2 -0.5,-0.6 -0.5,-1.1l-2.3,0l0,0.1c0,0.8 0.3,1.5 1,2.2c0.7,0.6 1.7,1 3,1c1.2,0 2.2,-0.3 2.9,-0.8c0.7,-0.5 1.1,-1.2 1.1,-2.1c0,-0.8 -0.3,-1.4 -0.8,-1.9c-0.6,-0.5 -1.4,-0.8 -2.6,-1c-0.8,-0.1 -1.3,-0.3 -1.5,-0.5c-0.2,-0.2 -0.4,-0.4 -0.4,-0.7c0,-0.3 0.1,-0.6 0.4,-0.8c0.3,-0.2 0.6,-0.3 1,-0.3c0.5,0 0.8,0.1 1.1,0.4c0.3,0.3 0.4,0.5 0.4,0.9l2.3,0l0,-0.1c0,-0.9 -0.3,-1.6 -1,-2.1c-0.7,-0.6 -1.7,-0.8 -2.9,-0.8c-1.1,0 -2.1,0.3 -2.7,0.9c-0.7,0.6 -1,1.3 -1,2.1c0,0.8 0.3,1.4 0.9,1.8c0.6,0.4 1.4,0.8 2.5,1c0.7,0.2 1.2,0.3 1.5,0.5c0.3,0.2 0.4,0.4 0.4,0.7c-0.1,0.2 -0.2,0.4 -0.5,0.6M80.2,106.6l-2.6,0l0,1.9l2.6,0l0,-1.9ZM80.2,110.8l-2.6,0l0,9.5l2.6,0l0,-9.5ZM67.2,110.8l0,9.5l2.6,0l0,-6.9c0.2,-0.3 0.4,-0.4 0.7,-0.6c0.3,-0.1 0.6,-0.2 0.9,-0.2c0.5,0 0.9,0.1 1.2,0.4c0.3,0.3 0.4,0.7 0.4,1.4l0,5.9l2.6,0l0,-5.9c0,-1.3 -0.3,-2.2 -0.8,-2.8c-0.5,-0.6 -1.3,-0.9 -2.2,-0.9c-0.6,0 -1.1,0.1 -1.5,0.4c-0.5,0.3 -0.8,0.6 -1.2,1.1l-0.1,-1.4l-2.6,0ZM59.8,118.3c-0.2,-0.2 -0.3,-0.4 -0.3,-0.8c0,-0.4 0.1,-0.7 0.4,-1c0.3,-0.3 0.7,-0.4 1.2,-0.4l1.4,0l0,1.3c-0.1,0.3 -0.4,0.5 -0.7,0.8c-0.4,0.2 -0.7,0.3 -1.2,0.3c-0.3,0.1 -0.6,0 -0.8,-0.2M65.6,120.3c-0.1,-0.4 -0.3,-0.8 -0.3,-1.2c-0.1,-0.4 -0.1,-0.8 -0.1,-1.2l0,-3.9c0,-1.1 -0.4,-1.9 -1.1,-2.5c-0.7,-0.6 -1.6,-0.9 -2.8,-0.9c-1.2,0 -2.2,0.3 -2.9,0.9c-0.7,0.6 -1.1,1.3 -1,2.1l0,0.1l2.5,0c0,-0.4 0.1,-0.6 0.3,-0.8c0.2,-0.2 0.5,-0.3 1,-0.3c0.5,0 0.8,0.1 1.1,0.4c0.2,0.3 0.4,0.6 0.4,1.1l0,0.8l-1.4,0c-1.4,0 -2.4,0.3 -3.1,0.8c-0.7,0.5 -1.1,1.2 -1.1,2.2c0,0.9 0.3,1.6 0.8,2.1c0.5,0.5 1.3,0.8 2.3,0.8c0.6,0 1.1,-0.2 1.5,-0.5c0.4,-0.3 0.8,-0.7 1,-1.1c0,0.2 0.1,0.5 0.1,0.7c0,0.2 0.1,0.5 0.2,0.7l2.6,0l0,-0.3ZM52.9,113.1c0.3,0.3 0.4,0.8 0.4,1.3l0,0.2l-3.1,0c0.1,-0.6 0.2,-1.1 0.5,-1.4c0.3,-0.4 0.6,-0.5 1.1,-0.5c0.5,-0.1 0.9,0.1 1.1,0.4M54.1,120.1c0.6,-0.2 1.1,-0.5 1.5,-0.8l-0.7,-1.6c-0.4,0.2 -0.9,0.4 -1.2,0.5c-0.4,0.1 -0.8,0.2 -1.4,0.2c-0.6,0 -1.1,-0.2 -1.5,-0.6c-0.4,-0.4 -0.6,-0.9 -0.6,-1.5l0,-0.1l5.6,0l0,-1.4c0,-1.3 -0.4,-2.4 -1.1,-3.1c-0.7,-0.8 -1.7,-1.2 -3,-1.2c-1.3,0 -2.3,0.4 -3.1,1.4c-0.8,0.9 -1.2,2.1 -1.2,3.5l0,0.3c0,1.3 0.4,2.5 1.2,3.3c0.8,0.9 1.9,1.3 3.3,1.3c0.8,0.2 1.5,0.1 2.2,-0.2M43.5,115.8c0,0.8 -0.1,1.5 -0.4,2c-0.3,0.5 -0.7,0.7 -1.4,0.7c-0.4,0 -0.7,-0.1 -1,-0.2c-0.3,-0.1 -0.5,-0.3 -0.6,-0.6l0,-4.2c0.2,-0.3 0.4,-0.5 0.6,-0.7c0.3,-0.2 0.6,-0.2 1,-0.2c0.6,0 1.1,0.3 1.4,0.8c0.3,0.6 0.4,1.3 0.4,2.2l0,0.2ZM46,115.6c0,-1.5 -0.3,-2.7 -1,-3.6c-0.6,-0.9 -1.6,-1.4 -2.7,-1.4c-0.5,0 -1,0.1 -1.4,0.3c-0.4,0.2 -0.7,0.5 -1,1l-0.1,-1.1l-2.3,0l0,13.1l2.5,0l0,-4.5c0.3,0.4 0.6,0.6 1,0.8c0.4,0.2 0.8,0.3 1.3,0.3c1.2,0 2.1,-0.4 2.7,-1.3c0.6,-0.9 1,-2 1,-3.4l0,-0.2ZM29.4,115.4c0,-0.8 0.2,-1.5 0.5,-2c0.3,-0.5 0.8,-0.8 1.4,-0.8c0.7,0 1.2,0.3 1.5,0.8c0.3,0.5 0.5,1.2 0.5,2.1l0,0.2c0,0.9 -0.2,1.5 -0.5,2.1c-0.3,0.5 -0.8,0.8 -1.4,0.8c-0.7,0 -1.2,-0.3 -1.5,-0.8c-0.3,-0.5 -0.5,-1.2 -0.5,-2.1l0,-0.3ZM26.8,115.6c0,1.4 0.4,2.6 1.2,3.5c0.8,0.9 1.9,1.3 3.3,1.3c1.4,0 2.5,-0.4 3.3,-1.3c0.8,-0.9 1.2,-2.1 1.2,-3.5l0,-0.2c0,-1.4 -0.4,-2.6 -1.2,-3.5c-0.8,-0.9 -1.9,-1.3 -3.3,-1.3c-1.4,0 -2.5,0.4 -3.3,1.4c-0.8,0.9 -1.2,2.1 -1.2,3.5l0,0.1ZM26,110.7c-0.1,0 -0.2,-0.1 -0.3,-0.1c-0.1,0 -0.2,0 -0.4,0c-0.5,0 -0.9,0.1 -1.2,0.4c-0.3,0.3 -0.6,0.7 -0.9,1.2l-0.1,-1.4l-2.4,0l0,9.5l2.5,0l0,-6.4c0.1,-0.3 0.3,-0.5 0.6,-0.7c0.2,-0.2 0.6,-0.2 0.9,-0.2l0.9,0l0.4,-2.3ZM16.5,120.3l2.2,0l0,-9.5l-2.6,0l0,6.9c-0.2,0.3 -0.4,0.5 -0.7,0.6c-0.3,0.1 -0.6,0.2 -1,0.2c-0.5,0 -0.8,-0.2 -1,-0.5c-0.2,-0.3 -0.3,-0.8 -0.3,-1.5l0,-5.7l-2.5,0l0,5.7c0,1.3 0.3,2.3 0.8,3c0.6,0.6 1.3,1 2.3,1c0.6,0 1.1,-0.1 1.5,-0.4c0.4,-0.3 0.8,-0.6 1.1,-1.1l0.2,1.3ZM8.2,112.7l-5.2,0l0,-3.2l6.1,0l0,-2l-8.7,0l0,12.7l8.7,0l0,-2l-6.1,0l0,-3.6l5.3,0l0,-1.9l-0.1,0Z" style="fill:#164194;fill-rule:nonzero;"/><path d="M9.2,72.2c0.9,0.7 1.7,1.4 2.6,2.1c7.7,6 15.9,10.9 25,14.5c4.7,1.9 9.6,3.3 14.7,4.2c4.2,0.7 8.5,1 12.7,0.8c8.6,-0.4 16.5,-2.9 23.9,-7.2c4.4,-2.6 8.4,-5.8 12,-9.3c0.1,-0.1 0.2,-0.2 0.3,-0.3c-1,-2.4 -1.9,-4.8 -2.9,-7.3c6.7,0.1 13.4,0.1 20,0.2l0,0.1c-0.1,0.2 -0.1,0.4 -0.2,0.6c-3.2,7.9 -6.5,15.7 -9.7,23.7c-1,-2.3 -2,-4.4 -3,-6.6c-0.1,0.1 -0.2,0.1 -0.3,0.2c-4.6,3.1 -9.5,5.6 -14.7,7.6c-4.2,1.6 -8.5,2.8 -13,3.6c-2.1,0.4 -4.3,0.7 -6.4,0.9c-3,0.3 -5.9,0.3 -8.9,0.2c-5,-0.3 -9.9,-1.1 -14.6,-2.5c-7.2,-2.1 -13.9,-5.4 -20.1,-9.7c-5.5,-3.8 -10.5,-8.2 -15.1,-13c-0.8,-0.8 -1.5,-1.6 -2.2,-2.4c-0.1,-0.3 -0.1,-0.3 -0.1,-0.4" style="fill:#164194;fill-rule:nonzero;"/><path d="M77.8,32.5c0.6,-0.6 1.2,-1.2 1.7,-1.9c5.2,7 5.6,17.8 -1.7,25.4c-7.3,7.6 -19.4,8.1 -27.4,1c-8,-7.1 -8.9,-19.2 -2.1,-27.4c7,-8.4 18,-8.8 25,-4.6c-0.5,0.7 -0.9,1.4 -1.4,2.1c-5.2,-2.7 -10.5,-2.9 -15.8,-0.4c-3.6,1.7 -6.3,4.4 -8.1,8.1c-3.5,7.3 -1.5,16.1 5,21.1c6.4,5 15.4,4.8 21.6,-0.4c3.4,-2.9 5.4,-6.5 6,-10.9c0.7,-4.3 -0.2,-8.4 -2.8,-12.1" style="fill:#164194;fill-rule:nonzero;"/><path d="M60,45.6c0.2,-0.3 0.4,-0.5 0.5,-0.7c4.1,-5.5 8.2,-11 12.3,-16.5c1.1,-1.4 2.2,-2.8 3.3,-4.2c0.6,-0.8 1.3,-1.5 2.1,-2c1.2,-0.9 2.6,-1.3 4.2,-1.3c0.5,0 1.1,0 1.6,0.1c0.1,0 0.3,0 0.4,0.1c0.6,0.2 0.8,0.7 0.4,1.2c-0.2,0.3 -0.5,0.5 -0.8,0.8c-3,3.1 -5.7,6.5 -8.4,10c-4.1,5.4 -8,11 -11.8,16.7c-0.6,0.9 -1.2,1.8 -1.9,2.7c-0.3,0.4 -0.7,0.8 -1.1,1.2c-0.4,0.4 -0.9,0.6 -1.5,0.6c-0.5,0 -1.1,0 -1.6,-0.1c-0.8,-0.1 -1.4,-0.4 -1.9,-1c-0.4,-0.4 -0.7,-0.9 -1,-1.4c-1.2,-2.2 -2.1,-4.6 -2.4,-7.1c-0.1,-0.6 -0.1,-1.1 -0.1,-1.7c0,-0.2 0.1,-0.4 0.2,-0.6c0.7,-0.7 1.4,-1.3 2.3,-1.7c0.6,-0.3 1.2,-0.4 1.8,-0.3c0.7,0.1 1.1,0.3 1.4,1c0.5,1.3 1.1,2.7 1.7,4c0.1,-0.2 0.2,-0.1 0.3,0.2" style="fill:#164194;fill-rule:nonzero;"/></g><path d="M64.2,0.1l-1.3,4.2l-4.4,0l3.6,2.5l-1.4,4.1l3.5,-2.5l3.5,2.5l-1.3,-4.1l3.5,-2.5l-4.3,0l-1.4,-4.2Z" style="fill:#f2cb00;fill-rule:nonzero;"/><path d="M42.7,15.8l3.5,-2.6l3.4,2.6l-1.3,-4.1l3.6,-2.6l-4.4,0l-1.4,-4.2l-1.3,4.2l-4.4,0l3.6,2.6l-1.3,4.1Z" style="fill:#f2cb00;fill-rule:nonzero;"/><path d="M32.9,18.2l-1.3,4.2l-4.4,0l3.6,2.5l-1.4,4.1l3.5,-2.5l3.5,2.5l-1.3,-4.1l3.5,-2.5l-4.3,0l-1.4,-4.2Z" style="fill:#f2cb00;fill-rule:nonzero;"/><path d="M28.1,44.5l3.5,2.6l-1.4,-4.1l3.6,-2.6l-4.4,0l-1.3,-4.2l-1.4,4.2l-4.3,0l3.5,2.6l-1.3,4.1l3.5,-2.6Z" style="fill:#f2cb00;fill-rule:nonzero;"/><path d="M34.3,58.5l-1.4,-4.2l-1.3,4.2l-4.4,0l3.6,2.6l-1.4,4.1l3.5,-2.6l3.5,2.6l-1.3,-4.1l3.5,-2.6l-4.3,0Z" style="fill:#f2cb00;fill-rule:nonzero;"/><path d="M47.5,71.8l-1.3,-4.2l-1.4,4.2l-4.3,0l3.5,2.5l-1.3,4.1l3.5,-2.5l3.5,2.5l-1.4,-4.1l3.6,-2.5l-4.4,0Z" style="fill:#f2cb00;fill-rule:nonzero;"/><path d="M65.6,76.6l-1.4,-4.2l-1.3,4.2l-4.4,0l3.6,2.5l-1.4,4.1l3.5,-2.5l3.5,2.5l-1.3,-4.1l3.5,-2.5l-4.3,0Z" style="fill:#f2cb00;fill-rule:nonzero;"/><path d="M83.6,71.8l-1.3,-4.2l-1.4,4.2l-4.3,0l3.5,2.5l-1.3,4.1l3.5,-2.5l3.5,2.5l-1.4,-4.1l3.6,-2.5l-4.4,0Z" style="fill:#f2cb00;fill-rule:nonzero;"/><path d="M96.9,58.5l-1.4,-4.2l-1.3,4.2l-4.4,0l3.6,2.6l-1.4,4.1l3.5,-2.6l3.5,2.6l-1.3,-4.1l3.5,-2.6l-4.3,0Z" style="fill:#f2cb00;fill-rule:nonzero;"/><path d="M106,40.4l-4.4,0l-1.3,-4.2l-1.3,4.2l-4.4,0l3.5,2.5l-1.3,4.1l3.5,-2.5l3.5,2.5l-1.3,-4.1l3.5,-2.5Z" style="fill:#f2cb00;fill-rule:nonzero;"/><path d="M92,29l3.5,-2.6l3.5,2.6l-1.3,-4.1l3.5,-2.6l-4.3,0l-1.4,-4.2l-1.3,4.2l-4.4,0l3.6,2.6l-1.4,4.1Z" style="fill:#f2cb00;fill-rule:nonzero;"/><path d="M82.3,4.9l-1.3,4.2l-4.4,0l3.6,2.6l-1.4,4.1l3.5,-2.6l3.5,2.6l-1.3,-4.1l3.5,-2.6l-4.3,0l-1.4,-4.2Z" style="fill:#f2cb00;fill-rule:nonzero;"/></g></svg>