<?xml version="1.0" encoding="UTF-8" standalone="no"?>
<!DOCTYPE svg PUBLIC "-//W3C//DTD SVG 1.1//EN" "http://www.w3.org/Graphics/SVG/1.1/DTD/svg11.dtd">
<svg width="100%" height="100%" viewBox="0 0 900 420" version="1.1" xmlns="http://www.w3.org/2000/svg" xmlns:xlink="http://www.w3.org/1999/xlink" xml:space="preserve" style="fill-rule:evenodd;clip-rule:evenodd;stroke-linejoin:round;stroke-miterlimit:1.41421;">
    <g transform="matrix(1,0,0,1,-0,-1760)">
        <g id="group-05" transform="matrix(3.66499,-1.60172e-16,-1.60172e-16,4.31894,2.94276e-13,-5754.96)">
            <g>
                <g transform="matrix(0.272852,1.0119e-17,1.0119e-17,0.231538,-2.20594e-14,1332.49)">
                    <path d="M471.005,1824.77L517.252,1824.77L517.252,1964.96L471.005,1964.96C466.441,1964.96 462.668,1961.24 462.602,1956.68L462.602,1833.05C462.668,1828.49 466.441,1824.77 471.005,1824.77Z" style="fill:rgb(88,86,66);"/>
                </g>
                <g transform="matrix(0.824742,3.05864e-17,3.05864e-17,0.699863,0.209718,1742.4)">
                    <path d="M160.34,59.75C158.934,59.756 157.771,58.606 157.76,57.2C157.792,55.802 158.942,54.666 160.34,54.65C160.393,54.647 160.446,54.645 160.5,54.645C161.898,54.645 163.05,55.796 163.05,57.195C163.05,58.594 161.898,59.745 160.5,59.745C160.446,59.745 160.393,59.743 160.34,59.74" style="fill:rgb(37,37,31);fill-rule:nonzero;"/>
                </g>
                <g transform="matrix(0.824742,3.05864e-17,3.05864e-17,0.699863,0.209718,1742.4)">
                    <path d="M160.34,50.86C158.953,50.844 157.82,49.698 157.82,48.31C157.82,46.911 158.971,45.76 160.37,45.76C161.769,45.76 162.92,46.911 162.92,48.31C162.909,49.716 161.746,50.866 160.34,50.86" style="fill:rgb(37,37,31);fill-rule:nonzero;"/>
                </g>
                <g transform="matrix(0.824742,3.05864e-17,3.05864e-17,0.699863,0.209718,1742.4)">
                    <path d="M160.34,42C158.934,42.006 157.771,40.856 157.76,39.45C157.792,38.052 158.942,36.916 160.34,36.9C160.393,36.897 160.446,36.895 160.5,36.895C161.898,36.895 163.05,38.046 163.05,39.445C163.05,40.844 161.898,41.995 160.5,41.995C160.446,41.995 160.393,41.993 160.34,41.99" style="fill:rgb(37,37,31);fill-rule:nonzero;"/>
                </g>
                <g transform="matrix(0.272852,1.0119e-17,1.0119e-17,0.231538,-2.20594e-14,1332.49)">
                    <path d="M517.202,1897.32C512.975,1897.3 509.487,1893.84 509.454,1889.61C509.551,1885.38 513.026,1881.95 517.252,1881.9L517.252,1897.32L517.202,1897.32Z" style="fill:rgb(37,37,31);"/>
                </g>
                <g transform="matrix(0.272852,1.0119e-17,1.0119e-17,0.231538,-2.20594e-14,1332.49)">
                    <path d="M517.252,1908.68L517.252,1924.1C513.058,1924.05 509.635,1920.58 509.635,1916.39C509.635,1912.19 513.065,1908.73 517.252,1908.68Z" style="fill:rgb(37,37,31);"/>
                </g>
                <g transform="matrix(0.272852,1.0119e-17,1.0119e-17,0.231538,-2.20594e-14,1332.49)">
                    <path d="M517.202,1950.97C512.975,1950.96 509.487,1947.49 509.454,1943.26C509.551,1939.03 513.026,1935.6 517.252,1935.55L517.252,1950.97L517.202,1950.97Z" style="fill:rgb(37,37,31);"/>
                </g>
                <g transform="matrix(0.272852,1.0119e-17,1.0119e-17,0.231538,-2.20594e-14,1332.49)">
                    <path d="M480.617,1867.63C480.557,1867.64 480.497,1867.64 480.436,1867.64C478.778,1867.64 477.413,1866.27 477.413,1864.62C477.413,1864.61 477.413,1864.61 477.413,1864.61L477.413,1841.97C477.413,1841.97 477.413,1841.97 477.413,1841.96C477.413,1840.31 478.778,1838.94 480.436,1838.94C480.497,1838.94 480.557,1838.94 480.617,1838.95L517.252,1838.95L517.252,1867.63L480.617,1867.63Z" style="fill:rgb(207,206,199);"/>
                </g>
            </g>
            <g>
                <g transform="matrix(0.272852,1.0119e-17,1.0119e-17,0.231538,-2.20594e-14,1332.49)">
                    <path d="M563.469,1824.77L563.562,1824.77C568.006,1824.77 571.663,1828.43 571.663,1832.87C571.663,1832.94 571.662,1833.01 571.66,1833.08L571.66,1956.68C571.595,1961.24 567.822,1964.96 563.257,1964.96L517.252,1964.96L517.252,1824.77L563.469,1824.77Z" style="fill:rgb(108,106,85);"/>
                </g>
                <g transform="matrix(0.824742,3.05864e-17,3.05864e-17,0.699863,0.209718,1742.4)">
                    <path d="M181.39,50.86C180.014,50.828 178.9,49.687 178.9,48.311C178.9,46.912 180.051,45.761 181.45,45.761C182.849,45.761 184,46.911 184,48.31C183.989,49.716 182.826,50.866 181.42,50.86" style="fill:rgb(132,229,178);fill-rule:nonzero;"/>
                </g>
                <g transform="matrix(0.824742,3.05864e-17,3.05864e-17,0.699863,0.209718,1742.4)">
                    <path d="M181.39,42C179.984,42.006 178.821,40.856 178.81,39.45C178.842,38.052 179.992,36.916 181.39,36.9C181.443,36.897 181.496,36.895 181.55,36.895C182.948,36.895 184.1,38.046 184.1,39.445C184.1,40.844 182.948,41.995 181.55,41.995C181.496,41.995 181.443,41.993 181.39,41.99" style="fill:rgb(232,80,83);fill-rule:nonzero;"/>
                </g>
                <g transform="matrix(0.272852,1.0119e-17,1.0119e-17,0.231538,-2.20594e-14,1332.49)">
                    <path d="M517.252,1881.9C517.413,1881.89 517.574,1881.88 517.735,1881.88C521.963,1881.88 525.442,1885.36 525.442,1889.59C525.442,1893.82 521.963,1897.3 517.735,1897.3C517.574,1897.3 517.413,1897.3 517.252,1897.29L517.252,1897.3L517.252,1881.9Z" style="fill:rgb(46,46,40);"/>
                </g>
                <g transform="matrix(0.272852,1.0119e-17,1.0119e-17,0.231538,-2.20594e-14,1332.49)">
                    <path d="M517.252,1908.68C517.282,1908.68 517.313,1908.68 517.343,1908.68C521.571,1908.68 525.05,1912.16 525.051,1916.39C525.018,1920.64 521.503,1924.11 517.252,1924.1L517.252,1908.68Z" style="fill:rgb(46,46,40);"/>
                </g>
                <g transform="matrix(0.272852,1.0119e-17,1.0119e-17,0.231538,-2.20594e-14,1332.49)">
                    <path d="M517.252,1935.55C517.413,1935.54 517.574,1935.54 517.735,1935.54C521.963,1935.54 525.442,1939.02 525.442,1943.24C525.442,1947.47 521.963,1950.95 517.735,1950.95C517.574,1950.95 517.413,1950.95 517.252,1950.94L517.252,1950.95L517.252,1935.55Z" style="fill:rgb(46,46,40);"/>
                </g>
                <g transform="matrix(0.272852,1.0119e-17,1.0119e-17,0.231538,-2.20594e-14,1332.49)">
                    <path d="M517.252,1838.95L553.675,1838.95C553.736,1838.94 553.796,1838.94 553.857,1838.94C555.515,1838.94 556.879,1840.31 556.879,1841.96C556.879,1841.97 556.879,1841.97 556.879,1841.97L556.879,1864.67C556.879,1866.33 555.515,1867.69 553.857,1867.69L553.917,1867.63L517.252,1867.63L517.252,1838.95Z" style="fill:white;"/>
                </g>
                <g transform="matrix(0.824742,3.05864e-17,3.05864e-17,0.699863,0.209718,1742.4)">
                    <path d="M181.39,59.75C179.984,59.756 178.821,58.606 178.81,57.2C178.842,55.802 179.992,54.666 181.39,54.65C181.443,54.647 181.496,54.645 181.55,54.645C182.948,54.645 184.1,55.796 184.1,57.195C184.1,58.594 182.948,59.745 181.55,59.745C181.496,59.745 181.443,59.743 181.39,59.74" style="fill:rgb(241,202,0);fill-rule:nonzero;"/>
                </g>
            </g>
            <g transform="matrix(0.824742,3.05864e-17,3.05864e-17,0.699863,0.209718,1742.4)">
                <path d="M130.35,102.25L137.6,102.25L137.6,100.8L133.25,99.35L130.35,99.35L130.35,102.25Z" style="fill:rgb(128,94,51);fill-rule:nonzero;"/>
            </g>
            <g transform="matrix(0.824742,3.05864e-17,3.05864e-17,0.699863,0.209718,1742.4)">
                <path d="M128.91,102.25L121.66,102.25L121.66,100.8L126,99.35L128.91,99.35L128.91,102.25Z" style="fill:rgb(128,94,51);fill-rule:nonzero;"/>
            </g>
            <g transform="matrix(0.824742,3.05864e-17,3.05864e-17,0.699863,0.209718,1742.4)">
                <path d="M124.08,41.05C124.08,40.05 124.23,42.05 124.23,41.05C124.23,39.57 123.05,36.05 123.03,34.18C123.33,31.97 123.03,32.29 123.03,30.05C123.25,29.84 123.51,27.05 123.81,27.23C124.64,27.03 124.59,26.68 125.28,26.23C125.822,25.93 126.458,25.845 127.06,25.99C128.082,25.912 129.108,25.912 130.13,25.99C130.635,26.05 131.079,26.353 131.32,26.8C132.2,27.24 132.67,26.94 133.16,27.85C133.12,28.017 133.077,28.18 133.03,28.34C133.24,28.76 135.03,31.34 135.14,32.12C135.22,33.05 135.09,34.12 135.14,35.02C135.261,35.729 135.177,36.457 134.9,37.12C134.712,37.535 134.427,37.898 134.07,38.18C134.035,38.74 134.051,39.303 134.12,39.86C134.12,40.54 134.12,41.23 134.12,41.91C134.05,43.43 132.74,42.91 131.37,43.3C130,43.69 128.76,44.68 127.37,43.83C127.156,43.357 126.698,43.038 126.18,43C125.472,42.913 124.754,42.989 124.08,43.22C124.172,42.504 124.195,41.781 124.15,41.06" style="fill:rgb(105,77,40);fill-rule:nonzero;"/>
                <path d="M131.85,38.8C131.598,40.793 132.029,42.813 133.07,44.53C134.82,47.53 126.07,50.53 126.07,50.53L123.83,47.53C123.83,47.53 124.94,45.27 125.6,38.8C126.25,32.5 131.86,38.8 131.86,38.8" style="fill:rgb(210,173,110);fill-rule:nonzero;"/>
                <path d="M121.92,71.13C120.026,71.167 118.489,72.735 118.489,74.629C118.489,74.653 118.49,74.676 118.49,74.7C118.495,75.018 118.542,75.334 118.63,75.64L121.47,98.3C120.38,98.9 128.79,98.5 128.79,98.5L125.36,74.7C125.393,72.782 123.848,71.173 121.93,71.13" style="fill:rgb(74,144,189);fill-rule:nonzero;"/>
                <path d="M135.65,71.13C133.756,71.167 132.219,72.735 132.219,74.629C132.219,74.653 132.22,74.676 132.22,74.7L128.79,98.5C128.79,98.5 137.2,98.9 136.11,98.3L138.95,75.64C139.038,75.334 139.085,75.018 139.09,74.7C139.09,74.676 139.091,74.653 139.091,74.629C139.091,72.735 137.554,71.167 135.66,71.13" style="fill:rgb(74,144,189);fill-rule:nonzero;"/>
                <path d="M132.71,37C132.766,36.512 132.793,36.021 132.79,35.53C133.79,35.3 134.16,34.26 134.27,33.34C134.33,32.82 134.35,32.39 133.86,32.26C133.59,32.18 132.64,32.68 132.77,33.07C132.966,31.699 132.728,30.3 132.09,29.07C131.78,28.64 131.41,28.84 130.87,28.7C130.291,28.538 129.692,28.457 129.09,28.46C127.814,28.558 126.569,28.897 125.42,29.46C124.19,30.01 126.09,31.17 126.09,32.3" style="fill:rgb(210,173,110);fill-rule:nonzero;"/>
                <path d="M128.86,40.35C131.42,40.35 133.49,37.68 133.49,34.35C133.49,31.02 131.42,28.35 128.86,28.35C126.3,28.35 124.23,31.02 124.23,34.35C124.23,37.68 126.3,40.35 128.86,40.35" style="fill:rgb(210,173,110);fill-rule:nonzero;"/>
                <path d="M142.14,67.35L140,52.54C140.1,47.854 137.671,43.459 133.65,41.05C132.486,42.703 130.586,43.688 128.565,43.688C126.544,43.688 124.644,42.703 123.48,41.05C119.459,43.459 117.03,47.854 117.13,52.54L115,67.35L142.14,67.35Z" style="fill:rgb(110,125,52);fill-rule:nonzero;"/>
            </g>
            <g transform="matrix(0.824742,3.05864e-17,3.05864e-17,0.699863,0.209718,1742.4)">
                <clipPath id="_clip1">
                    <path d="M115.94,60.74L115.1,66.54L118.1,66.54L118.1,60.74L115.94,60.74Z"/>
                </clipPath>
                <g clip-path="url(#_clip1)">
                    <path d="M112.53,62.53C112.53,61.73 113.83,61.08 115.43,61.08C117.03,61.08 118.33,61.73 118.33,62.53C118.33,63.33 117,64 115.43,64C113.86,64 112.53,63.35 112.53,62.55" style="fill:rgb(210,173,110);fill-rule:nonzero;"/>
                    <path d="M113.92,64.38C113.82,63.81 114.76,63.16 116.03,62.94C117.3,62.72 118.41,63 118.51,63.57C118.61,64.14 117.66,64.79 116.4,65.01C115.14,65.23 114.02,64.95 113.92,64.37" style="fill:rgb(210,173,110);fill-rule:nonzero;"/>
                </g>
            </g>
            <g transform="matrix(0.824742,3.05864e-17,3.05864e-17,0.699863,0.209718,1742.4)">
                <clipPath id="_clip2">
                    <path d="M117.13,52.54L115,67.35L142.16,67.35L140,52.54C140.1,47.854 137.671,43.459 133.65,41.05C132.486,42.703 130.586,43.688 128.565,43.688C126.544,43.688 124.644,42.703 123.48,41.05C119.459,43.459 117.03,47.854 117.13,52.54"/>
                </clipPath>
                <g clip-path="url(#_clip2)">
                    <rect x="116.9" y="61.08" width="28.6" height="4" style="fill:rgb(210,173,110);"/>
                </g>
            </g>
            <g transform="matrix(0.824742,3.05864e-17,3.05864e-17,0.699863,0.209718,1742.4)">
                <path d="M128.56,43.15L126.85,45.86L123.06,41.27L124.26,40.67L128.56,43.15Z" style="fill:white;fill-rule:nonzero;"/>
            </g>
            <g transform="matrix(0.824742,3.05864e-17,3.05864e-17,0.699863,0.209718,1742.4)">
                <path d="M128.56,43.15L129.85,45.86L133.98,41.27L132.77,40.67L128.56,43.15Z" style="fill:white;fill-rule:nonzero;"/>
            </g>
            <g transform="matrix(0.824742,3.05864e-17,3.05864e-17,0.699863,0.209718,1742.4)">
                <path d="M131.08,28.41C131.08,28.41 127.08,28.41 123.81,32.71L123.81,29.05L127.08,28.14L131.08,28.41Z" style="fill:rgb(105,77,40);fill-rule:nonzero;"/>
            </g>
            <g transform="matrix(0.824742,3.05864e-17,3.05864e-17,0.699863,0.209718,1742.4)">
                <rect x="98.5" y="64.6" width="100" height="5.5" style="fill:rgb(128,94,51);"/>
            </g>
            <g transform="matrix(0.824742,3.05864e-17,3.05864e-17,0.699863,0.209718,1742.4)">
                <rect x="120.5" y="54.2" width="17.1" height="10.4" style="fill:rgb(46,46,40);"/>
            </g>
            <g transform="matrix(0.824742,3.05864e-17,3.05864e-17,0.699863,0.209718,1742.4)">
                <path d="M129.05,60.65C129.73,60.65 130.29,60.09 130.29,59.41C130.29,58.73 129.73,58.17 129.05,58.17C128.37,58.17 127.81,58.73 127.81,59.41C127.81,60.09 128.37,60.65 129.05,60.65" style="fill:white;fill-rule:nonzero;"/>
            </g>
        </g>
    </g>
</svg>
