<?xml version="1.0" encoding="UTF-8" standalone="no"?><!DOCTYPE svg PUBLIC "-//W3C//DTD SVG 1.1//EN" "http://www.w3.org/Graphics/SVG/1.1/DTD/svg11.dtd"><svg width="100%" height="100%" viewBox="0 0 900 420" version="1.1" xmlns="http://www.w3.org/2000/svg" xmlns:xlink="http://www.w3.org/1999/xlink" xml:space="preserve" style="fill-rule:evenodd;clip-rule:evenodd;stroke-linejoin:round;stroke-miterlimit:1.41421;"><g><path d="M388.05,70.126c-9.309,1.814 -7.254,8.131 -7.254,8.131l3.99,7.617l0.544,2.841c0,0 0.181,5.411 -1.179,6.953c-1.36,1.541 -6.589,6.045 -6.589,6.045c0,0 12.997,28.897 21.612,17.138c8.614,-11.758 11.728,-8.735 11.728,-8.735c0,0 -7.738,-17.985 -7.738,-18.408c5.108,0.272 -25.028,-62.993 -15.325,-21.612" style="fill:#d3ae6e;fill-rule:nonzero;"/><path d="M426.076,197.108l0,-2.75l0,-59.154c0,-15.355 -5.834,-28.504 -17.048,-34.73c-1.723,3.355 -7.92,5.833 -15.386,5.833c-7.466,0 -13.662,-2.478 -15.385,-5.833c-11.214,6.226 -17.048,19.375 -17.048,34.73l0,61.904c0.665,7.345 0.333,13.24 7.708,13.905l6.257,4.443l6.227,107.335l9.068,0l3.022,-111.839l0.393,0l3.023,111.839l9.068,0l6.227,-107.275l6.075,-4.503c7.375,-0.665 7.073,-6.529 7.708,-13.905l0.091,0Z" style="fill:#93c1d4;fill-rule:nonzero;"/></g><g><clipPath id="_clip1"><path d="M393.612,106.338c-7.436,0 -13.662,-2.479 -15.385,-5.834c-11.214,6.226 -17.048,19.405 -17.048,34.73l0,61.905c0.665,7.345 0.332,13.239 7.708,13.904l6.257,4.443l6.226,107.335l9.068,0l3.023,-111.839l0.393,0l3.023,111.839l9.068,0l6.196,-107.274l6.136,-4.534c7.375,-0.665 7.073,-6.529 7.708,-13.905l0,-2.75l0,-59.154c0,-15.355 -5.834,-28.504 -17.048,-34.73c-1.723,3.355 -7.919,5.833 -15.385,5.833"/></clipPath><g clip-path="url(#_clip1)"><rect x="372.967" y="100.504" width="5.139" height="88.443" style="fill:#405269;"/><rect x="409.33" y="100.504" width="5.139" height="88.443" style="fill:#405269;"/></g></g><path d="M396.725,324.03l21.915,0l0,-4.383l-13.179,-4.383l-8.736,0l0,8.766Z" style="fill:#815e33;fill-rule:nonzero;"/><path d="M392.312,324.03l-21.884,0l0,-4.383l13.149,-4.383l8.735,0l0,8.766Z" style="fill:#815e33;fill-rule:nonzero;"/><g><path d="M402.438,60.967c0,0 -5.259,0.635 -5.833,2.025c-0.575,1.391 -4.051,3.023 -3.325,4.444c-1.723,4.111 -3.9,1.602 -4.323,3.778c-0.423,2.176 -0.181,5.501 -1.904,5.411c-5.139,-6.983 -5.804,4.896 -1.481,5.32c2.237,0.665 -0.212,7.586 -0.212,7.586c0,0 -3.476,-0.574 -5.864,-6.408c-1.333,-3.051 -2.111,-6.317 -2.297,-9.642c-0.725,-3.657 0.514,-6.045 0.695,-9.37c0.182,-3.325 3.174,-5.229 3.99,-7.496c0,-3.023 6.559,-6.046 8.524,-6.953c4.796,2.869 8.919,6.735 12.091,11.335" style="fill:#5c4322;fill-rule:nonzero;"/><path d="M413.562,68.071c-0.738,3.754 -0.84,7.606 -0.303,11.395c1.119,3.567 -0.846,6.196 -6.498,9.219c-2.349,0.931 -4.055,3.015 -4.504,5.501l4.201,-33.249l7.104,7.134Z" style="fill:#5c4322;fill-rule:nonzero;"/><path d="M397.874,92.071c-6.499,0 -11.758,-7.587 -11.758,-16.988c0,-9.4 5.259,-16.987 11.758,-16.987c6.499,0 11.758,7.587 11.758,16.987c0,9.401 -5.259,16.988 -11.758,16.988" style="fill:#d3ae6e;fill-rule:nonzero;"/><path d="M389.471,50.086c2.176,0.423 11.849,7.949 12.091,11.063c0.242,3.113 10.005,6.045 10.005,6.045c0,0 1.511,1.39 1.904,1.149c-3.325,-21.461 -20.161,-19.436 -24.181,-18.136" style="fill:#5c4322;fill-rule:nonzero;"/></g><path d="M395.637,188.947l-26.72,0l8.766,127.708l15.929,0l2.025,-127.708Z" style="fill:#405269;fill-rule:nonzero;"/><path d="M393.401,188.947l26.69,0l-8.736,127.708l-15.929,0l-2.025,-127.708Z" style="fill:#405269;fill-rule:nonzero;"/><g><path d="M363.416,218.146c-2.419,0 -4.383,-3.929 -4.383,-8.766c0,-4.836 1.964,-8.765 4.383,-8.765c2.418,0 4.382,3.929 4.382,8.765c0,4.837 -1.964,8.766 -4.382,8.766" style="fill:#d3ae6e;fill-rule:nonzero;"/><path d="M369.008,213.914c-1.723,0.303 -3.688,-2.539 -4.353,-6.377c-0.665,-3.839 0.181,-7.194 1.904,-7.497c1.723,-0.302 3.688,2.57 4.353,6.378c0.665,3.809 -0.182,7.194 -1.904,7.496" style="fill:#d3ae6e;fill-rule:nonzero;"/></g><rect x="375.537" y="146.116" width="36.332" height="48.363" style="fill:#405269;"/><g><path d="M630.529,63.718c0,0 -33.249,-34.972 -23.516,6.408c-9.31,1.814 -7.225,8.131 -7.225,8.131l3.99,7.617l0.544,2.841c0,0 0.182,5.411 -1.209,6.953c-1.39,1.541 -6.589,6.045 -6.589,6.045c0,0 12.997,28.897 21.612,17.138c8.615,-11.758 11.728,-8.796 11.728,-8.796c0,0 -8.131,-15.899 -8.222,-16.322c5.078,0.272 5.592,-3.597 5.592,-3.597c0.589,-2.462 1.388,-4.869 2.388,-7.194c0.432,-2.926 0.432,-5.9 0,-8.826c-0.346,-1.828 0.046,-3.72 1.088,-5.26c0.283,-1.717 0.221,-3.474 -0.181,-5.168" style="fill:#d3ae6e;fill-rule:nonzero;"/><path d="M621.521,60.967c0,0 -5.259,0.635 -5.833,2.025c-0.575,1.391 -4.051,3.023 -3.325,4.444c-1.723,4.111 -3.9,1.602 -4.323,3.778c-0.423,2.176 -0.181,5.501 -1.874,5.411c-5.138,-6.983 -5.803,4.896 -1.481,5.32c2.237,0.665 -0.211,7.586 -0.211,7.586c0,0 -3.477,-0.574 -5.864,-6.408c-1.334,-3.051 -2.112,-6.317 -2.298,-9.642c-0.725,-3.657 0.514,-6.045 0.696,-9.37c0.181,-3.325 3.173,-5.229 3.989,-7.496c0,-3.023 6.56,-6.046 8.524,-6.953c4.796,2.869 8.92,6.735 12.091,11.335" style="fill:#621500;fill-rule:nonzero;"/><path d="M634.519,182.116l12.756,-41.532c0,-15.355 -2.177,-34.035 -17.048,-40.08c-1.723,3.355 -7.92,5.834 -15.386,5.834c-7.466,0 -13.662,-2.479 -15.385,-5.834c-17.864,6.045 -17.048,24.755 -17.048,40.08l11.184,41.532l2.72,33.249l6.348,107.426l9.068,0l3.023,-111.839l0.362,0l3.023,111.839l9.068,0l6.227,-107.275l1.088,-33.4Z" style="fill:#c9abbc;fill-rule:nonzero;"/></g><clipPath id="_clip2"><path d="M614.751,106.338c-7.436,0 -13.633,-2.479 -15.386,-5.834c-17.864,6.045 -17.048,24.755 -17.048,40.08l11.275,41.532l2.72,33.249l6.348,107.426l9.068,0l3.023,-111.839l0.362,0l3.023,111.839l9.068,0l6.227,-107.275l1.239,-33.4l12.756,-41.532c0,-15.355 -2.177,-34.035 -17.048,-40.08c-1.723,3.355 -7.92,5.834 -15.386,5.834"/></clipPath><g clip-path="url(#_clip2)"><rect x="581.924" y="259.436" width="65.743" height="65.743" style="fill:#d3ae6e;"/></g><path d="M616.413,158.267l-33.279,5.985l12.967,102.771l37.027,0l13.482,-102.771l-30.197,-5.985Z" style="fill:#c9abbc;fill-rule:nonzero;"/><path d="M616.897,324.03l21.914,0l0,-4.383l-13.149,-4.383l-8.765,0l0,8.766Z" style="fill:#621500;fill-rule:nonzero;"/><path d="M612.514,324.03l-21.915,0l0,-4.383l13.149,-4.383l8.766,0l0,8.766Z" style="fill:#621500;fill-rule:nonzero;"/><g><path d="M632.675,68.071c-0.737,3.754 -0.839,7.606 -0.302,11.395c1.162,2.955 1.904,6.058 2.206,9.219c0.544,4.927 2.539,6.65 2.116,10.912c-0.423,4.262 2.418,1.632 5.381,8.191c2.962,6.56 -1.905,9.613 -1.602,11.245c0.302,1.632 -3.023,-1.058 -3.9,1.602c-0.876,2.66 -6.045,-1.33 -6.045,-1.33c0,0 -3.748,-7.406 -4.534,-8.826c-1.838,-5.337 -3.362,-10.777 -4.564,-16.293l4.201,-33.249l7.043,7.134Z" style="fill:#621500;fill-rule:nonzero;"/><path d="M616.987,92.071c-6.498,0 -11.758,-7.587 -11.758,-16.988c0,-9.4 5.26,-16.987 11.758,-16.987c6.499,0 11.759,7.587 11.759,16.987c0,9.401 -5.26,16.988 -11.759,16.988" style="fill:#d3ae6e;fill-rule:nonzero;"/><path d="M608.705,50.086c2.177,0.423 11.849,7.949 12.091,11.063c0.242,3.113 10.005,6.045 10.005,6.045c0,0 1.511,1.39 1.904,1.149c-3.325,-21.461 -20.161,-19.436 -24.181,-18.136" style="fill:#621500;fill-rule:nonzero;"/><path d="M447.234,192.756c0,-0.242 0,-0.424 0,-0.424c-0.034,-0.039 -0.084,-0.061 -0.136,-0.061c-0.052,0 -0.101,0.022 -0.136,0.061l-5.41,3.023c-0.165,0.066 -0.349,0.066 -0.514,0l-3.023,-1.148c-0.163,-0.063 -0.271,-0.219 -0.272,-0.393l0,-3.235c0.009,-0.171 0.099,-0.328 0.242,-0.423l5.713,-3.022c0.083,0 0.151,-0.069 0.151,-0.152c0,-0.083 -0.068,-0.151 -0.151,-0.151c-0.349,-0.252 -0.713,-0.484 -1.088,-0.695c-1.198,-0.648 -2.538,-0.988 -3.9,-0.988c-4.494,0 -8.191,3.698 -8.191,8.192c0,0.017 0,0.034 0,0.05c-0.032,0.423 -0.032,0.847 0,1.27c0.027,0.312 0.027,0.625 0,0.937c-0.004,0.35 -0.065,0.697 -0.181,1.028c-0.063,0.179 -0.144,0.351 -0.242,0.514l-0.212,0.302l-0.393,0.423l-14.448,14.418l-0.423,0.363l-0.272,0.181c-0.255,0.143 -0.53,0.245 -0.817,0.302c-0.281,0.034 -0.565,0.034 -0.846,0l-0.544,0l-1.179,0c-4.266,0.204 -7.693,3.711 -7.798,7.98c-0.106,4.27 0,0.303 0,0.454c0,0.151 0,0.423 0,0.423c0.034,0.039 0.084,0.061 0.136,0.061c0.052,0 0.101,-0.022 0.136,-0.061l5.41,-3.023c0.165,-0.065 0.349,-0.065 0.514,0l3.023,1.149c0.151,0.071 0.246,0.226 0.242,0.393l0,3.234c-0.01,0.171 -0.099,0.328 -0.242,0.423l-5.713,3.023c-0.083,0 -0.151,0.068 -0.151,0.151c0,0.083 0.068,0.151 0.151,0.151c0.349,0.253 0.712,0.485 1.088,0.695c1.198,0.649 2.538,0.988 3.9,0.988c4.493,0 8.191,-3.698 8.191,-8.191c0,-0.017 0,-0.034 0,-0.051c0.031,-0.423 0.031,-0.847 0,-1.27c-0.026,-0.311 -0.026,-0.625 0,-0.937c0.005,-0.35 0.067,-0.697 0.181,-1.027c0.062,-0.18 0.143,-0.352 0.242,-0.514l0.212,-0.302l0.393,-0.424l14.448,-14.418l0.423,-0.362l0.272,-0.182c0.254,-0.145 0.529,-0.247 0.816,-0.302c0.281,-0.034 0.566,-0.034 0.847,0l1.723,0c4.493,0 8.191,-3.698 8.191,-8.192c0,-4.493 0,-0.302 0,-0.453" style="fill:#2e2e28;fill-rule:nonzero;"/></g><g><path d="M424.02,218.146c2.418,0 4.383,-3.929 4.383,-8.766c0,-4.836 -1.965,-8.765 -4.383,-8.765c-2.418,0 -4.383,3.929 -4.383,8.765c0,4.837 1.965,8.766 4.383,8.766" style="fill:#d3ae6e;fill-rule:nonzero;"/><path d="M418.277,213.914c1.723,0.303 3.688,-2.539 4.353,-6.377c0.665,-3.839 -0.182,-7.194 -1.905,-7.497c-1.722,-0.302 -3.687,2.57 -4.382,6.378c-0.696,3.809 0.181,7.194 1.934,7.496" style="fill:#d3ae6e;fill-rule:nonzero;"/></g><g><path d="M476.675,213.28c-2.388,0 -4.322,-3.869 -4.322,-8.645c0,-4.776 1.934,-8.645 4.322,-8.645c2.388,0 4.322,3.869 4.322,8.645c0,4.776 -1.934,8.645 -4.322,8.645" style="fill:#d3ae6e;fill-rule:nonzero;"/><path d="M482.207,209.108c-1.723,0.303 -3.628,-2.509 -4.323,-6.287c-0.695,-3.778 0.181,-7.103 1.904,-7.405c1.723,-0.303 3.628,2.508 4.293,6.287c0.665,3.778 -0.182,7.103 -1.905,7.375" style="fill:#d3ae6e;fill-rule:nonzero;"/></g><path d="M523.829,89.743l-1.028,3.295l-3.597,0l0,-3.295l4.625,0Z" style="fill:#fff;fill-rule:nonzero;"/><path d="M516.846,86.448l8.947,8.645l0,14.328l-8.947,-22.973Z" style="fill:#d3ae6e;fill-rule:nonzero;"/><path d="M474.65,196.685l4.353,-67.315c0,-15.113 5.773,-28.111 16.806,-34.247c1.692,3.295 7.828,5.743 15.113,5.743c7.285,0 13.451,-2.448 15.113,-5.743c11.063,6.046 16.806,19.134 16.806,34.247c0,0 -6.71,69.733 -13.964,70.368l0.181,8.736l-6.045,108l-8.796,0l-3.023,-112.293l-0.363,0l-3.022,112.293l-8.796,0l-6.046,-107.91l-4.05,-10.881c-7.285,-0.635 -14.116,-0.998 -14.116,-0.998" style="fill:#fff;fill-rule:nonzero;"/><clipPath id="_clip3"><path d="M511.013,100.866c-7.345,0 -13.451,-2.448 -15.114,-5.743c-11.033,6.046 -16.806,19.134 -16.806,34.247l-4.352,67.315c0,0 6.861,0.363 14.115,0.998l4.051,10.881l6.045,107.91l8.796,0l3.023,-112.293l0.363,0l3.022,112.293l8.796,0l6.045,-108l-0.181,-8.736c7.285,-0.635 13.995,-70.368 13.995,-70.368c0,-15.113 -5.773,-28.111 -16.806,-34.247c-1.693,3.295 -7.829,5.743 -15.113,5.743"/></clipPath><g clip-path="url(#_clip3)"><rect x="478.64" y="251.849" width="64.836" height="64.836" style="fill:#d3ae6e;"/></g><g><path d="M495.839,94.73c4.02,-1.571 3.99,-8.191 3.99,-8.191c-1.844,-0.937 -5.078,-10.156 -4.323,-14.751c0.907,-5.319 -3.022,-12.604 3.386,-16.292c6.408,-3.687 16.594,-1.239 17.229,0c0.635,1.24 4.927,0.423 4.927,13.209c0,0 2.206,-4.776 4.322,-2.69c3.023,3.023 -0.907,11.607 -4.322,10.126l0,13.481l-1.542,14.207l-14.66,-2.116l-9.007,-6.983Z" style="fill:#d3ae6e;fill-rule:nonzero;"/><path d="M526.579,65.894c0.114,-2.225 0.114,-4.455 0,-6.68c-0.57,-2.267 -1.715,-4.349 -3.325,-6.045c-0.732,-0.957 -1.609,-1.793 -2.599,-2.479c-1.478,-0.853 -3.025,-1.581 -4.625,-2.176c-1.233,-0.759 -2.552,-1.368 -3.929,-1.814c-1.639,-0.432 -3.324,-0.665 -5.018,-0.695c-1.451,0 -2.69,0.272 -4.111,0.302c-1.282,0.128 -2.495,0.645 -3.476,1.481c-2.356,1.104 -4.243,3.012 -5.32,5.381c-0.937,3.022 1.24,11.788 1.119,7.617c0,-1.753 0.967,-2.207 2.357,-3.416c1.751,-1.107 3.794,-1.666 5.864,-1.602c4.267,-0.84 8.678,-0.58 12.816,0.756c1.33,0.604 2.449,0.907 3.023,2.388c0.482,1.335 0.787,2.727 0.907,4.141c0.272,1.874 -0.484,4.594 0.453,6.257c0.32,-0.629 0.684,-1.235 1.089,-1.814c0.403,-0.773 1.083,-1.367 1.904,-1.662c0.786,0 2.811,0.967 2.66,2.297" style="fill:#694d28;fill-rule:nonzero;"/></g><path d="M508.987,324.03l-21.612,0l0,-4.322l12.968,-4.323l8.644,0l0,8.645Z" style="fill:#694d28;fill-rule:nonzero;"/><path d="M526.489,324.03l-21.612,0l0,-4.322l12.967,-4.323l8.645,0l0,8.645Z" style="fill:#694d28;fill-rule:nonzero;"/><path d="M506.781,102.408l5.108,9.129l15.537,-15.779l-3.597,-6.015l-17.048,12.665Z" style="fill:#fff;fill-rule:nonzero;"/><path d="M504.665,102.408l-3.839,7.013l-5.954,-13.663l3.566,-3.899l6.227,10.549Z" style="fill:#fff;fill-rule:nonzero;"/><path d="M509.804,190.791l24.241,0l-5.894,126.075l-16.504,0l-1.843,-126.075Z" style="fill:#2e2e28;fill-rule:nonzero;"/><path d="M511.859,190.791l-24.272,0l5.894,126.075l16.504,0l1.874,-126.075Z" style="fill:#2e2e28;fill-rule:nonzero;"/><g><path d="M538.64,213.28c2.388,0 4.322,-3.869 4.322,-8.645c0,-4.776 -1.934,-8.645 -4.322,-8.645c-2.388,0 -4.323,3.869 -4.323,8.645c0,4.776 1.935,8.645 4.323,8.645" style="fill:#d3ae6e;fill-rule:nonzero;"/><path d="M533.139,209.108c1.722,0.303 3.627,-2.509 4.292,-6.287c0.665,-3.778 -0.182,-7.103 -1.905,-7.405c-1.722,-0.303 -3.627,2.508 -4.292,6.287c-0.665,3.778 0.182,7.103 1.905,7.375" style="fill:#d3ae6e;fill-rule:nonzero;"/></g><rect x="527.426" y="130.338" width="15.567" height="66.348" style="fill:#fff;"/><g><path d="M495.144,34.156l-1.663,19.013c0,0 18.68,-10.066 31.92,2.781c0.906,0.665 1.662,-19.013 1.662,-19.013l-31.919,-2.781Z" style="fill:#fff;fill-rule:nonzero;"/><path d="M502.186,42.62c4.478,0 8.162,-3.684 8.162,-8.162c0,-4.477 -3.684,-8.161 -8.162,-8.161c-4.477,0 -8.161,3.684 -8.161,8.161c0,4.478 3.684,8.162 8.161,8.162" style="fill:#fff;fill-rule:nonzero;"/><path d="M517.39,45.854c0.021,0 0.041,0 0.061,0c7.047,0 12.846,-5.799 12.846,-12.846c0,-7.048 -5.799,-12.847 -12.846,-12.847c-7.047,0 -12.846,5.799 -12.846,12.847c0,0.01 -0.001,0.02 -0.001,0.03c0,7.019 5.767,12.799 12.786,12.816" style="fill:#fff;fill-rule:nonzero;"/></g><path d="M644.222,133.451l0,-3.96l-27.295,17.078l27.295,-13.118Z" style="fill:#405269;fill-rule:nonzero;"/><path d="M616.927,148.02l0,46.67l33.008,-15.567l0,-46.639l-33.008,15.536Z" style="fill:#405269;fill-rule:nonzero;"/><path d="M585.824,133.451l0,-3.96l27.294,17.078l-27.294,-13.118Z" style="fill:#405269;fill-rule:nonzero;"/><path d="M613.118,148.02l0,46.67l-33.007,-15.567l0,-46.639l33.007,15.536Z" style="fill:#405269;fill-rule:nonzero;"/><g><path d="M584.524,115.617l-14.207,43.466c-2.418,7.375 1.512,8.04 1.512,8.04l8.191,1.391l4.504,-52.897Z" style="fill:#c9abbc;fill-rule:nonzero;"/><path d="M644.463,115.617l14.207,43.466c2.418,7.375 -1.511,8.04 -1.511,8.04l-8.192,1.391l-4.504,-52.897Z" style="fill:#c9abbc;fill-rule:nonzero;"/></g><g><path d="M635.214,161.834c0,-2.418 3.93,-4.383 8.766,-4.383c4.836,0 8.766,1.965 8.766,4.383c0,2.418 -3.93,4.383 -8.766,4.383c-4.836,0 -8.766,-1.965 -8.766,-4.383" style="fill:#d3ae6e;fill-rule:nonzero;"/><path d="M639.416,167.426c-0.303,-1.723 2.539,-3.688 6.377,-4.353c3.839,-0.665 7.194,0.181 7.497,1.904c0.302,1.723 -2.57,3.688 -6.378,4.353c-3.809,0.665 -7.194,-0.181 -7.496,-1.935" style="fill:#d3ae6e;fill-rule:nonzero;"/></g><g><path d="M594.529,161.834c0,-2.418 -3.93,-4.383 -8.766,-4.383c-4.836,0 -8.766,1.965 -8.766,4.383c0,2.418 3.93,4.383 8.766,4.383c4.836,0 8.766,-1.965 8.766,-4.383" style="fill:#d3ae6e;fill-rule:nonzero;"/><path d="M590.327,167.426c0.303,-1.723 -2.539,-3.688 -6.377,-4.353c-3.839,-0.665 -7.194,0.181 -7.497,1.904c-0.302,1.723 2.57,3.688 6.378,4.353c3.809,0.665 7.194,-0.181 7.496,-1.935" style="fill:#d3ae6e;fill-rule:nonzero;"/></g><g><path d="M294.861,83.365c-0.758,5.957 0.521,12 3.628,17.139c5.259,9.068 -20.978,17.954 -20.978,17.954l-6.68,-9.068c0,0 8.071,-7.254 5.381,-26.025c-2.691,-18.771 18.71,0 18.71,0" style="fill:#d3ae6e;fill-rule:nonzero;"/><path d="M295.919,82.096c0.167,-1.465 0.247,-2.939 0.242,-4.413c3.023,-0.665 4.081,-3.779 4.413,-6.56c0.182,-1.571 0.242,-2.841 -1.209,-3.234c-0.816,-0.211 -3.657,1.27 -3.264,2.418c0.574,-3.294 0.453,-10.791 -1.421,-13.39c-0.937,-1.3 -2.66,0.725 -4.292,0.302c-1.731,-0.488 -3.522,-0.732 -5.32,-0.725c-3.676,-0.425 -7.399,-0.148 -10.972,0.816c-3.658,1.662 -3.507,5.531 -3.507,9.068" style="fill:#d3ae6e;fill-rule:nonzero;"/><path d="M284.403,92.131c7.647,0 13.844,-9.068 13.844,-20.071c0,-11.002 -6.197,-20.07 -13.844,-20.07c-7.647,0 -13.844,9.068 -13.844,20.07c0,11.003 6.197,20.071 13.844,20.071" style="fill:#d3ae6e;fill-rule:nonzero;"/><path d="M298.338,67.285c0.181,1.027 -0.877,1.964 -1.361,2.69c-0.483,0.725 -0.302,1.632 -0.876,2.267c0,-1.3 -0.635,1.511 -0.786,0.272c-0.151,-1.239 0.302,-5.804 -0.967,-6.045c-0.182,-0.998 0.332,-1.542 0.544,-2.419c0.046,-0.54 -0.015,-1.085 -0.182,-1.602c0,-0.574 0,-1.178 0,-1.783c-0.061,-0.526 -0.259,-1.026 -0.574,-1.451c-0.242,-0.453 -0.272,-1.118 -0.605,-1.481c-0.332,-0.363 -0.604,-0.181 -1.027,0c-0.423,0.181 -1.965,0.242 -3.023,0.363c-0.911,0.001 -1.81,0.207 -2.63,0.604c-0.362,0.212 -0.634,0.423 -0.997,0.665c-0.518,0.405 -0.994,0.86 -1.421,1.36c-0.288,0.245 -0.56,0.508 -0.816,0.786c-0.153,0.309 -0.335,0.603 -0.544,0.877c-0.786,0.756 -0.695,1.149 -0.907,2.176c-0.77,-0.639 -1.205,-1.598 -1.179,-2.599c-0.034,-0.822 0.037,-1.645 0.212,-2.449c0.164,-0.496 0.215,-1.022 0.151,-1.541c-0.816,1.511 -5.713,4.322 -4.232,6.408c-1.874,-0.302 0.393,-3.688 0.393,-4.353c-0.816,1.119 -1.723,2.086 -1.39,1.209c0.181,-0.423 0,-0.816 0.242,-1.239c-0.054,0.448 -0.135,0.892 -0.242,1.33c-0.695,0 -2.025,1.511 -2.63,1.814c-1.058,0.574 -1.481,0.302 -2.025,1.42c-0.907,1.905 -0.816,1.119 -0.816,2.479c0,0.635 0.937,7.798 0.876,8.342c-0.06,0.544 -0.453,-2.297 -1.088,-2.297c-0.423,-0.544 0.151,-5.652 -0.967,-5.652c-0.18,-1.237 -0.547,-2.44 -1.088,-3.567c-0.398,-1.332 -0.521,-2.73 -0.363,-4.111c0.205,-3.186 1.248,-6.263 3.023,-8.917c0.574,-0.876 1.3,-1.027 2.176,-1.571c0.877,-0.545 1.542,-1.421 2.418,-1.875c1.213,-0.737 2.499,-1.345 3.839,-1.813c1.135,-0.313 2.285,-0.565 3.446,-0.756c1.006,-0.087 2.017,-0.087 3.023,0c0.798,0.076 1.588,0.228 2.357,0.454c0.605,0 1.814,-0.182 1.814,0.816c0.455,0.242 0.93,0.444 1.421,0.604c0.634,0 1.42,-0.514 2.025,-0.514c0.604,0 0.755,0.514 1.33,0.968c0.574,0.453 2.085,0.453 1.299,1.058c0,0.181 0,0.634 0.212,0.785c0.212,0.152 0.937,0.242 1.33,0.393c0.393,0.152 1.088,0.454 1.3,1.179c0.211,0.726 0,1.391 0.544,2.086c0.544,0.695 0.846,0.907 0.846,1.602l0.333,0c0.341,2.107 0.217,4.263 -0.363,6.317c-0.333,1.209 -0.484,2.418 -0.756,3.658c0,0.544 -0.272,1.058 -0.423,1.602c-0.163,0.464 -0.294,0.938 -0.393,1.42" style="fill:#694d28;fill-rule:nonzero;"/><path d="M317.743,128.645c0,-15.114 3.355,-29.713 -16.866,-34.368c-1.723,3.325 -7.859,5.773 -15.114,5.773c-7.254,0 -13.511,-2.448 -15.113,-5.773c-21.854,4.685 -16.867,19.194 -16.867,34.368l8.615,63.99l11.395,123.929l8.464,0l3.023,-112.715l0.362,0l3.023,112.715l8.826,0l14.297,-123.929l5.955,-63.99Z" style="fill:#ff6479;fill-rule:nonzero;"/></g><clipPath id="_clip4"><path d="M285.642,100.02c-7.375,0 -13.511,-2.448 -15.113,-5.773c-21.854,4.685 -16.867,19.194 -16.867,34.368l8.615,63.99l11.396,123.929l8.584,0l3.023,-112.715l0.362,0l3.023,112.715l8.826,0l14.297,-123.929l5.713,-63.99c0,-15.114 3.355,-29.713 -16.866,-34.368c-1.723,3.295 -7.859,5.773 -15.114,5.773"/></clipPath><g clip-path="url(#_clip4)"><rect x="253.028" y="251.577" width="65.078" height="65.078" style="fill:#d3ae6e;"/></g><path d="M287.637,324.03l21.703,0l0,-4.352l-12.997,-4.323l-8.706,0l0,8.675Z" style="fill:#815e33;fill-rule:nonzero;"/><path d="M283.315,324.03l-21.703,0l0,-4.352l13.028,-4.323l8.675,0l0,8.675Z" style="fill:#815e33;fill-rule:nonzero;"/><path d="M289.209,100.353l-3.385,0.423l-3.355,-0.423l-2.872,0l5.35,6.136l-5.713,56.886l6.59,6.106l6.619,-6.106l-5.743,-56.886l5.35,-6.136l-2.841,0Z" style="fill:#000;fill-rule:nonzero;"/><path d="M285.642,100.534l-5.138,8.101l-11.335,-13.723l3.597,-1.814l12.876,7.436Z" style="fill:#fff;fill-rule:nonzero;"/><path d="M285.642,100.534l3.839,8.101l12.363,-13.723l-3.597,-1.814l-12.605,7.436Z" style="fill:#fff;fill-rule:nonzero;"/><path d="M261.249,184.202l6.529,134.659l17.864,0l2.026,-134.659" style="fill:#6e7d34;fill-rule:nonzero;"/><path d="M311.849,184.202l-6.529,134.659l-17.864,0l-2.025,-134.659" style="fill:#6e7d34;fill-rule:nonzero;"/><g><path d="M254.599,104.977c0,0 -10.851,43.557 -13.269,53.078c-2.418,9.522 1.481,10.398 1.481,10.398l22.338,-0.151l-10.55,-63.325Z" style="fill:#ff6479;fill-rule:nonzero;"/><path d="M316.564,106.489l13.028,51.566c2.418,9.522 -1.511,10.398 -1.511,10.398l-23.607,-0.151l12.09,-61.813Z" style="fill:#ff6479;fill-rule:nonzero;"/></g><rect x="256.111" y="125.139" width="59.97" height="36.484" style="fill:#2e2e28;"/><path d="M286.096,147.718c2.388,0 4.352,-1.965 4.352,-4.353c0,-2.388 -1.964,-4.352 -4.352,-4.352c-2.388,0 -4.353,1.964 -4.353,4.352c0,2.388 1.965,4.353 4.353,4.353" style="fill:#fff;fill-rule:nonzero;"/><g><path d="M306.136,160.141c0,-2.418 3.929,-4.383 8.766,-4.383c4.836,0 8.766,1.965 8.766,4.383c0,2.418 -3.93,4.383 -8.766,4.383c-4.837,0 -8.766,-1.965 -8.766,-4.383" style="fill:#d3ae6e;fill-rule:nonzero;"/><path d="M310.338,165.854c-0.303,-1.723 2.539,-3.688 6.377,-4.353c3.839,-0.665 7.194,0.182 7.497,1.905c0.302,1.722 -2.57,3.687 -6.378,4.352c-3.809,0.665 -7.194,-0.181 -7.496,-1.934" style="fill:#d3ae6e;fill-rule:nonzero;"/></g><g><path d="M265.451,160.141c0,-2.418 -3.93,-4.383 -8.766,-4.383c-4.836,0 -8.766,1.965 -8.766,4.383c0,2.418 3.93,4.383 8.766,4.383c4.836,0 8.766,-1.965 8.766,-4.383" style="fill:#d3ae6e;fill-rule:nonzero;"/><path d="M261.098,165.854c0.303,-1.723 -2.539,-3.688 -6.378,-4.353c-3.838,-0.665 -7.194,0.182 -7.496,1.905c-0.302,1.722 2.569,3.687 6.378,4.352c3.809,0.665 7.194,-0.181 7.496,-1.934" style="fill:#d3ae6e;fill-rule:nonzero;"/></g><g><path d="M505.935,105.34c1.048,-0.202 1.813,-1.128 1.813,-2.196c0,-1.227 -1.01,-2.237 -2.237,-2.237c-1.227,0 -2.237,1.01 -2.237,2.237c0,0.006 0,0.013 0.001,0.02c0.142,1.322 1.336,2.299 2.66,2.176" style="fill:#2e2e28;fill-rule:nonzero;"/><path d="M512.675,114.982c0.225,-0.78 0.34,-1.587 0.34,-2.399c0,-3.961 -2.722,-7.439 -6.567,-8.392c-0.784,4.608 1.845,9.165 6.227,10.791" style="fill:#2e2e28;fill-rule:nonzero;"/><path d="M499.617,113.924c-0.221,-0.773 -0.334,-1.574 -0.334,-2.379c0,-3.992 2.766,-7.491 6.652,-8.411c0.784,4.607 -1.845,9.164 -6.227,10.79" style="fill:#2e2e28;fill-rule:nonzero;"/></g></svg>