<?xml version="1.0" encoding="UTF-8" standalone="no"?>
<!DOCTYPE svg PUBLIC "-//W3C//DTD SVG 1.1//EN" "http://www.w3.org/Graphics/SVG/1.1/DTD/svg11.dtd">
<svg width="100%" height="100%" viewBox="0 0 900 420" version="1.1" xmlns="http://www.w3.org/2000/svg" xmlns:xlink="http://www.w3.org/1999/xlink" xml:space="preserve" style="fill-rule:evenodd;clip-rule:evenodd;stroke-linejoin:round;stroke-miterlimit:1.41421;">
    <clipPath id="_clip1">
        <rect id="group-02" x="0" y="0" width="900" height="420"/>
    </clipPath>
    <g clip-path="url(#_clip1)">
        <g transform="matrix(3.02267,0,0,3.02267,1.14861,9.00756)">
            <path d="M191.06,87.78L146.22,49.57L131.07,79.36L109.52,63.83L87.01,71.52L63.66,57.66L67.84,50.63L87.94,62.57L110.88,54.73L128.11,67.15L143.63,36.63L189.93,76.08L222.99,34.63L229.38,39.73L191.06,87.78Z" style="fill:rgb(124,198,185);fill-rule:nonzero;"/>
        </g>
        <g transform="matrix(3.02267,0,0,3.02267,1.14861,9.00756)">
            <path d="M231.8,30.14L211.73,33.14L233.34,50.38L231.8,30.14Z" style="fill:rgb(124,198,185);fill-rule:nonzero;"/>
        </g>
        <g transform="matrix(3.02267,0,0,3.02267,1.14861,9.00756)">
            <path d="M137.1,21.6C137.1,21.6 148.1,10.03 144.88,23.72C147.96,24.32 147.27,26.41 147.27,26.41L145.95,28.93L145.77,29.87C145.77,29.87 145.71,31.66 146.17,32.17C146.63,32.68 148.35,34.17 148.35,34.17C148.35,34.17 144.05,43.73 141.2,39.84C138.35,35.95 137.31,36.95 137.31,36.95C137.31,36.95 140,31.69 140.03,31.55C138.35,31.64 138.18,30.36 138.18,30.36C137.985,29.546 137.721,28.749 137.39,27.98C137.247,27.012 137.247,26.028 137.39,25.06C137.505,24.455 137.375,23.829 137.03,23.32C136.937,22.752 136.957,22.17 137.09,21.61" style="fill:rgb(210,173,110);fill-rule:nonzero;"/>
        </g>
        <g transform="matrix(3.02267,0,0,3.02267,1.14861,9.00756)">
            <path d="M140.08,20.69C140.08,20.69 141.82,20.9 142.01,21.36C142.2,21.82 143.35,22.36 143.11,22.83C143.68,24.19 144.4,23.36 144.54,24.08C144.68,24.8 144.6,25.9 145.17,25.87C146.87,23.56 147.09,27.49 145.66,27.63C144.92,27.85 145.73,30.14 145.73,30.14C145.73,30.14 146.88,29.95 147.67,28.02C148.111,27.01 148.368,25.93 148.43,24.83C148.67,23.62 148.26,22.83 148.2,21.73C148.14,20.63 147.15,20 146.88,19.25C146.88,18.25 144.71,17.25 144.06,16.95C142.473,17.899 141.109,19.178 140.06,20.7" style="fill:rgb(98,21,0);fill-rule:nonzero;"/>
        </g>
        <g transform="matrix(3.02267,0,0,3.02267,1.14861,9.00756)">
            <path d="M154.16,65.74L154.16,64.83L154.16,45.26C154.16,40.18 152.23,35.83 148.52,33.77C147.95,34.88 145.9,35.7 143.43,35.7C140.96,35.7 138.91,34.88 138.34,33.77C134.63,35.83 132.7,40.18 132.7,45.26L132.7,65.74C132.92,68.17 132.81,70.12 135.25,70.34L137.32,71.81L139.38,107.32L142.38,107.32L143.38,70.32L143.51,70.32L144.51,107.32L147.51,107.32L149.57,71.83L151.64,70.34C154.08,70.12 153.98,68.18 154.19,65.74L154.16,65.74Z" style="fill:rgb(255,100,121);fill-rule:nonzero;"/>
        </g>
        <g transform="matrix(3.02267,0,0,3.02267,1.14861,9.00756)">
            <clipPath id="_clip2">
                <path d="M143.42,35.7C140.96,35.7 138.91,34.88 138.33,33.77C134.62,35.83 132.69,40.18 132.69,45.26L132.69,65.74C132.91,68.18 132.8,70.12 135.24,70.34L137.31,71.81L139.37,107.32L142.37,107.32L143.37,70.32L143.49,70.32L144.49,107.32L147.49,107.32L149.54,71.83L151.61,70.34C154.05,70.12 153.95,68.18 154.16,65.74L154.16,64.84L154.16,45.27C154.16,40.19 152.23,35.84 148.52,33.78C147.95,34.89 145.9,35.71 143.43,35.71"/>
            </clipPath>
            <g clip-path="url(#_clip2)">
                <rect x="137.34" y="49.93" width="6.83" height="3.6" style="fill:rgb(210,173,110);"/>
            </g>
        </g>
        <g transform="matrix(3.02267,0,0,3.02267,1.14861,9.00756)">
            <path d="M148.28,51C148.28,50.2 146.98,49.55 145.38,49.55C143.78,49.55 142.48,50.2 142.48,51C142.48,51.8 143.78,52.45 145.38,52.45C146.98,52.45 148.28,51.8 148.28,51" style="fill:rgb(210,173,110);fill-rule:nonzero;"/>
        </g>
        <g transform="matrix(3.02267,0,0,3.02267,1.14861,9.00756)">
            <path d="M146.88,52.83C146.98,52.26 146.04,51.61 144.77,51.39C143.5,51.17 142.39,51.45 142.29,52.02C142.19,52.59 143.14,53.24 144.4,53.46C145.66,53.68 146.78,53.4 146.88,52.82" style="fill:rgb(210,173,110);fill-rule:nonzero;"/>
        </g>
        <g transform="matrix(3.02267,0,0,3.02267,1.14861,9.00756)">
            <path d="M143.94,52.88L138.96,55.26L131.5,87.54L155.34,87.54L149.42,55.26L143.94,52.88Z" style="fill:rgb(255,100,121);fill-rule:nonzero;"/>
        </g>
        <g transform="matrix(3.02267,0,0,3.02267,1.14861,9.00756)">
            <path d="M133.43,72.69C132.63,72.69 131.98,71.39 131.98,69.79C131.98,68.19 132.63,66.89 133.43,66.89C134.23,66.89 134.88,68.19 134.88,69.79C134.88,71.39 134.23,72.69 133.43,72.69" style="fill:rgb(210,173,110);fill-rule:nonzero;"/>
        </g>
        <g transform="matrix(3.02267,0,0,3.02267,1.14861,9.00756)">
            <path d="M135.28,71.3C134.71,71.4 134.06,70.46 133.84,69.19C133.62,67.92 133.9,66.81 134.47,66.71C135.04,66.61 135.69,67.56 135.92,68.82C136.15,70.08 135.86,71.2 135.29,71.3" style="fill:rgb(210,173,110);fill-rule:nonzero;"/>
        </g>
        <g transform="matrix(3.02267,0,0,3.02267,1.14861,9.00756)">
            <path d="M153.48,72.69C154.28,72.69 154.93,71.39 154.93,69.79C154.93,68.19 154.28,66.89 153.48,66.89C152.68,66.89 152.03,68.19 152.03,69.79C152.03,71.39 152.68,72.69 153.48,72.69" style="fill:rgb(210,173,110);fill-rule:nonzero;"/>
        </g>
        <g transform="matrix(3.02267,0,0,3.02267,1.14861,9.00756)">
            <path d="M151.63,71.3C152.2,71.4 152.85,70.46 153.07,69.19C153.29,67.92 153.01,66.81 152.44,66.71C151.87,66.61 151.22,67.56 150.99,68.82C150.76,70.08 151.05,71.2 151.63,71.3" style="fill:rgb(210,173,110);fill-rule:nonzero;"/>
        </g>
        <g transform="matrix(3.02267,0,0,3.02267,1.14861,9.00756)">
            <path d="M144.09,107.72L151.34,107.72L151.34,106.28L146.99,104.83L144.09,104.83L144.09,107.72Z" style="fill:rgb(128,94,51);fill-rule:nonzero;"/>
        </g>
        <g transform="matrix(3.02267,0,0,3.02267,1.14861,9.00756)">
            <path d="M142.64,107.72L135.39,107.72L135.39,106.28L139.74,104.83L142.64,104.83L142.64,107.72Z" style="fill:rgb(128,94,51);fill-rule:nonzero;"/>
        </g>
        <g transform="matrix(3.02267,0,0,3.02267,1.14861,9.00756)">
            <path d="M136.39,23C136.634,24.242 136.668,25.517 136.49,26.77C136.106,27.748 135.86,28.774 135.76,29.82C135.58,31.45 134.92,32.02 135.06,33.43C135.2,34.84 134.26,33.97 133.28,36.14C132.3,38.31 133.91,39.32 133.81,39.86C133.71,40.4 134.81,39.51 135.1,40.39C135.39,41.27 137.1,39.95 137.1,39.95C137.1,39.95 138.34,37.5 138.6,37.03C139.208,35.264 139.712,33.465 140.11,31.64L138.72,20.64L136.39,23Z" style="fill:rgb(98,21,0);fill-rule:nonzero;"/>
        </g>
        <g transform="matrix(3.02267,0,0,3.02267,1.14861,9.00756)">
            <path d="M141.58,31C143.73,31 145.47,28.49 145.47,25.38C145.47,22.27 143.73,19.76 141.58,19.76C139.43,19.76 137.69,22.27 137.69,25.38C137.69,28.49 139.43,31 141.58,31" style="fill:rgb(210,173,110);fill-rule:nonzero;"/>
        </g>
        <g transform="matrix(3.02267,0,0,3.02267,1.14861,9.00756)">
            <path d="M144.36,17.09C143.64,17.23 140.44,19.72 140.36,20.75C140.28,21.78 137.05,22.75 137.05,22.75C137.05,22.75 136.55,23.21 136.42,23.13C137.52,16.03 143.09,16.7 144.42,17.13" style="fill:rgb(98,21,0);fill-rule:nonzero;"/>
        </g>
        <g transform="matrix(3.02267,0,0,3.02267,1.14861,9.00756)">
            <path d="M142.84,87.6L142.84,105.1L147.93,105.1L148.93,87.6L142.84,87.6Z" style="fill:rgb(210,173,110);fill-rule:nonzero;"/>
        </g>
        <g transform="matrix(3.02267,0,0,3.02267,1.14861,9.00756)">
            <path d="M117,27.7C116.749,29.671 117.172,31.67 118.2,33.37C119.94,36.37 111.26,39.31 111.26,39.31L109.05,36.31C109.05,36.31 111.72,33.87 110.81,27.67C109.9,21.47 117,27.67 117,27.67" style="fill:rgb(210,173,110);fill-rule:nonzero;"/>
        </g>
        <g transform="matrix(3.02267,0,0,3.02267,1.14861,9.00756)">
            <path d="M117.36,27.27C117.415,26.785 117.442,26.298 117.44,25.81C118.44,25.59 118.79,24.56 118.9,23.64C118.96,23.12 118.98,22.7 118.5,22.57C118.23,22.5 117.29,22.99 117.42,23.37C117.61,22.28 117.57,19.8 116.95,18.94C116.64,18.51 116.07,19.18 115.53,19.04C114.957,18.879 114.365,18.798 113.77,18.8C112.554,18.66 111.322,18.751 110.14,19.07C108.93,19.62 108.98,20.9 108.98,22.07" style="fill:rgb(210,173,110);fill-rule:nonzero;"/>
        </g>
        <g transform="matrix(3.02267,0,0,3.02267,1.14861,9.00756)">
            <path d="M113.55,30.6C116.08,30.6 118.13,27.6 118.13,23.96C118.13,20.32 116.08,17.32 113.55,17.32C111.02,17.32 109,20.29 109,24C109,27.71 111.05,30.64 113.58,30.64" style="fill:rgb(210,173,110);fill-rule:nonzero;"/>
        </g>
        <g transform="matrix(3.02267,0,0,3.02267,1.14861,9.00756)">
            <path d="M118.15,22.37C118.21,22.71 117.86,23.02 117.7,23.26C117.54,23.5 117.6,23.8 117.41,24.01C117.41,23.58 117.2,24.51 117.15,24.1C117.1,23.69 117.25,22.18 116.83,22.1C116.77,21.77 116.94,21.59 117.01,21.3C117.025,21.121 117.005,20.941 116.95,20.77C116.95,20.58 116.95,20.38 116.95,20.18C116.93,20.006 116.864,19.841 116.76,19.7C116.68,19.55 116.67,19.33 116.56,19.21C116.45,19.09 116.36,19.15 116.22,19.21C116.08,19.27 115.57,19.29 115.22,19.33C114.919,19.33 114.621,19.399 114.35,19.53C114.23,19.6 114.14,19.67 114.02,19.75C113.849,19.884 113.691,20.035 113.55,20.2C113.455,20.281 113.365,20.368 113.28,20.46C113.229,20.562 113.169,20.659 113.1,20.75C112.84,21 112.87,21.13 112.8,21.47C112.545,21.259 112.401,20.941 112.41,20.61C112.399,20.338 112.422,20.066 112.48,19.8C112.534,19.636 112.551,19.462 112.53,19.29C112.26,19.79 110.64,20.72 111.13,21.41C110.51,21.31 111.26,20.19 111.26,19.97C110.99,20.34 110.69,20.66 110.8,20.37C110.86,20.23 110.8,20.1 110.88,19.96C110.862,20.108 110.835,20.255 110.8,20.4C110.57,20.4 110.13,20.9 109.93,21C109.58,21.19 109.44,21.1 109.26,21.47C108.96,22.1 108.99,21.84 108.99,22.29C108.99,22.5 109.3,24.87 109.28,25.05C109.26,25.23 109.13,24.29 108.92,24.29C108.78,24.11 108.97,22.42 108.6,22.42C108.541,22.011 108.419,21.613 108.24,21.24C108.108,20.799 108.068,20.337 108.12,19.88C108.188,18.826 108.533,17.808 109.12,16.93C109.31,16.64 109.55,16.59 109.84,16.41C110.13,16.23 110.35,15.94 110.64,15.79C111.041,15.546 111.467,15.345 111.91,15.19C112.285,15.087 112.666,15.003 113.05,14.94C113.383,14.911 113.717,14.911 114.05,14.94C114.282,14.984 114.509,15.048 114.73,15.13C114.93,15.13 115.33,15.07 115.33,15.4C115.481,15.48 115.638,15.547 115.8,15.6C116.01,15.6 116.27,15.43 116.47,15.43C116.67,15.43 116.72,15.6 116.91,15.75C117.1,15.9 117.6,15.9 117.34,16.1C117.34,16.16 117.34,16.31 117.41,16.36C117.48,16.41 117.72,16.44 117.85,16.49C117.98,16.54 118.21,16.64 118.28,16.88C118.35,17.12 118.28,17.34 118.46,17.57C118.64,17.8 118.74,17.87 118.74,18.1L118.85,18.1C118.964,18.815 118.916,19.546 118.71,20.24C118.6,20.64 118.55,21.04 118.46,21.45C118.46,21.63 118.37,21.8 118.32,21.98C118.266,22.134 118.223,22.291 118.19,22.45" style="fill:rgb(105,77,40);fill-rule:nonzero;"/>
        </g>
        <g transform="matrix(3.02267,0,0,3.02267,1.14861,9.00756)">
            <path d="M124.59,62.94L124.59,62L124.59,42.63C124.59,37.63 122.67,33.29 119.01,31.25C118.44,32.35 116.41,33.16 114.01,33.16C111.61,33.16 109.54,32.35 109.01,31.25C105.34,33.25 103.43,37.6 103.43,42.63L103.43,62.9C103.65,65.31 103.54,67.24 105.96,67.45L108.01,68.91L110.01,104.77L112.93,104.77L113.93,67.48L114,67.48L115,104.77L118,104.77L120,69L122,67.49C124.42,67.28 124.31,65.35 124.53,62.94L124.59,62.94Z" style="fill:rgb(200,170,2);fill-rule:nonzero;"/>
        </g>
        <g transform="matrix(3.02267,0,0,3.02267,1.14861,9.00756)">
            <clipPath id="_clip3">
                <path d="M114,33.21C111.56,33.21 109.53,32.39 109,31.3C105.33,33.3 103.42,37.65 103.42,42.68L103.42,62.95C103.64,65.36 103.53,67.29 105.95,67.5L108,68.95L110,104.81L112.92,104.81L113.92,67.52L114,67.52L115,104.81L118,104.81L120,69L122,67.5C124.42,67.28 124.31,65.36 124.53,62.95L124.53,62L124.53,42.63C124.53,37.63 122.61,33.29 118.95,31.26C118.38,32.35 116.35,33.17 113.95,33.17"/>
            </clipPath>
            <g clip-path="url(#_clip3)">
                <rect x="103.17" y="83.35" width="21.53" height="21.53" style="fill:rgb(210,173,110);"/>
            </g>
        </g>
        <g transform="matrix(3.02267,0,0,3.02267,1.14861,9.00756)">
            <path d="M114.62,107.32L121.8,107.32L121.8,105.88L117.49,104.44L114.62,104.44L114.62,107.32Z" style="fill:rgb(128,94,51);fill-rule:nonzero;"/>
        </g>
        <g transform="matrix(3.02267,0,0,3.02267,1.14861,9.00756)">
            <path d="M113.19,107.32L106.01,107.32L106.01,105.88L110.31,104.44L113.19,104.44L113.19,107.32Z" style="fill:rgb(128,94,51);fill-rule:nonzero;"/>
        </g>
        <g transform="matrix(3.02267,0,0,3.02267,1.14861,9.00756)">
            <path d="M115.14,33.31L114.02,33.46L112.91,33.31L111.96,33.31L113.73,35.35L111.84,54.16L114.02,56.19L116.2,54.16L114.31,35.35L116.08,33.31L115.14,33.31Z" style="fill:black;fill-rule:nonzero;"/>
        </g>
        <g transform="matrix(3.02267,0,0,3.02267,1.14861,9.00756)">
            <path d="M113.96,33.37L112.26,36.05L108.5,31.52L109.7,30.92L113.96,33.37Z" style="fill:white;fill-rule:nonzero;"/>
        </g>
        <g transform="matrix(3.02267,0,0,3.02267,1.14861,9.00756)">
            <path d="M113.96,33.37L115.23,36.05L119.31,31.52L118.12,30.92L113.96,33.37Z" style="fill:white;fill-rule:nonzero;"/>
        </g>
        <g transform="matrix(3.02267,0,0,3.02267,1.14861,9.00756)">
            <path d="M120.47,105.61L114.55,105.61L114.255,86.962L113.96,105.61L108.04,105.61L105.88,63.89L122.63,63.89L120.47,105.61Z" style="fill:rgb(64,82,105);"/>
        </g>
        <g transform="matrix(3.02267,0,0,3.02267,1.14861,9.00756)">
            <path d="M104.07,70.54C103.28,70.54 102.63,69.26 102.63,67.67C102.63,66.08 103.27,64.8 104.07,64.8C104.87,64.8 105.51,66.08 105.51,67.67C105.51,69.26 104.87,70.54 104.07,70.54" style="fill:rgb(210,173,110);fill-rule:nonzero;"/>
        </g>
        <g transform="matrix(3.02267,0,0,3.02267,1.14861,9.00756)">
            <path d="M105.9,69.16C105.33,69.26 104.69,68.33 104.47,67.07C104.25,65.81 104.53,64.72 105.1,64.62C105.67,64.52 106.31,65.46 106.53,66.71C106.75,67.96 106.47,69.06 105.9,69.16" style="fill:rgb(210,173,110);fill-rule:nonzero;"/>
        </g>
        <g transform="matrix(3.02267,0,0,3.02267,1.14861,9.00756)">
            <path d="M123.92,70.54C124.71,70.54 125.35,69.26 125.35,67.67C125.35,66.08 124.71,64.8 123.92,64.8C123.13,64.8 122.48,66.08 122.48,67.67C122.48,69.26 123.12,70.54 123.92,70.54" style="fill:rgb(210,173,110);fill-rule:nonzero;"/>
        </g>
        <g transform="matrix(3.02267,0,0,3.02267,1.14861,9.00756)">
            <path d="M122.09,69.16C122.66,69.26 123.3,68.33 123.52,67.07C123.74,65.81 123.46,64.72 122.89,64.62C122.32,64.52 121.68,65.46 121.46,66.71C121.24,67.96 121.52,69.06 122.09,69.16" style="fill:rgb(210,173,110);fill-rule:nonzero;"/>
        </g>
        <g transform="matrix(3.02267,0,0,3.02267,1.14861,9.00756)">
            <rect x="124.64" y="52.88" width="21.49" height="54.84" style="fill:rgb(105,77,40);"/>
        </g>
        <g transform="matrix(3.02267,0,0,3.02267,1.14861,9.00756)">
            <path d="M162.91,72.31C162.12,72.31 161.48,71.03 161.48,69.45C161.48,67.87 162.12,66.59 162.91,66.59C163.7,66.59 164.34,67.87 164.34,69.45C164.34,71.03 163.7,72.31 162.91,72.31" style="fill:rgb(210,173,110);fill-rule:nonzero;"/>
        </g>
        <g transform="matrix(3.02267,0,0,3.02267,1.14861,9.00756)">
            <path d="M164.74,70.94C164.17,71.04 163.54,70.11 163.31,68.86C163.08,67.61 163.37,66.51 163.94,66.41C164.51,66.31 165.14,67.24 165.36,68.49C165.58,69.74 165.3,70.84 164.73,70.93" style="fill:rgb(210,173,110);fill-rule:nonzero;"/>
        </g>
        <g transform="matrix(3.02267,0,0,3.02267,1.14861,9.00756)">
            <path d="M178.51,31.44L178.16,32.53L176.98,32.53L176.98,31.44L178.51,31.44Z" style="fill:white;fill-rule:nonzero;"/>
        </g>
        <g transform="matrix(3.02267,0,0,3.02267,1.14861,9.00756)">
            <path d="M176.2,30.35L179.16,33.22L179.16,37.95L176.2,30.35Z" style="fill:rgb(210,173,110);fill-rule:nonzero;"/>
        </g>
        <g transform="matrix(3.02267,0,0,3.02267,1.14861,9.00756)">
            <path d="M162.24,66.82L163.68,44.55C163.68,39.55 165.59,35.25 169.24,33.22C169.8,34.31 171.83,35.12 174.24,35.12C176.65,35.12 178.69,34.31 179.24,33.22C182.9,35.22 184.8,39.55 184.8,44.55C184.8,44.55 182.58,67.62 180.18,67.83L180.24,70.72L178.24,106.45L175.33,106.45L174.33,69.3L174.21,69.3L173.21,106.45L170.3,106.45L168.3,70.75L166.96,67.15C164.55,66.94 162.29,66.82 162.29,66.82" style="fill:rgb(110,125,52);fill-rule:nonzero;"/>
        </g>
        <g transform="matrix(3.02267,0,0,3.02267,1.14861,9.00756)">
            <clipPath id="_clip4">
                <path d="M174.26,35.12C171.83,35.12 169.81,34.31 169.26,33.22C165.61,35.22 163.7,39.55 163.7,44.55L162.26,66.82C162.26,66.82 164.53,66.94 166.93,67.15L168.27,70.75L170.27,106.45L173.18,106.45L174.18,69.3L174.3,69.3L175.3,106.45L178.21,106.45L180.21,70.72L180.15,67.83C182.56,67.62 184.78,44.55 184.78,44.55C184.78,39.55 182.87,35.25 179.22,33.22C178.66,34.31 176.63,35.12 174.22,35.12"/>
            </clipPath>
            <g clip-path="url(#_clip4)">
                <rect x="163.56" y="85.08" width="21.45" height="21.45" style="fill:rgb(210,173,110);"/>
            </g>
        </g>
        <g transform="matrix(3.02267,0,0,3.02267,1.14861,9.00756)">
            <path d="M169.25,33.09C170.58,32.57 170.57,30.38 170.57,30.38C169.96,30.07 168.89,27.02 169.14,25.5C169.44,23.74 168.14,21.33 170.26,20.11C172.38,18.89 175.75,19.7 175.96,20.11C176.17,20.52 177.59,20.25 177.59,24.49C177.59,24.49 178.32,22.91 179.02,23.6C180.02,24.6 178.72,27.44 177.59,26.95L177.59,31.41L177.08,36.11L172.23,35.41L169.25,33.09Z" style="fill:rgb(210,173,110);fill-rule:nonzero;"/>
        </g>
        <g transform="matrix(3.02267,0,0,3.02267,1.14861,9.00756)">
            <path d="M179.42,23.56C179.458,22.824 179.458,22.086 179.42,21.35C179.231,20.6 178.852,19.911 178.32,19.35C178.078,19.034 177.788,18.757 177.46,18.53C176.971,18.248 176.459,18.007 175.93,17.81C175.522,17.559 175.086,17.357 174.63,17.21C174.088,17.067 173.531,16.99 172.97,16.98C172.49,16.98 172.08,17.07 171.61,17.08C171.186,17.122 170.784,17.293 170.46,17.57C169.681,17.935 169.056,18.566 168.7,19.35C168.39,20.35 169.11,23.25 169.07,21.87C169.07,21.29 169.39,21.14 169.85,20.74C170.429,20.374 171.105,20.189 171.79,20.21C173.202,19.932 174.661,20.018 176.03,20.46C176.47,20.66 176.84,20.76 177.03,21.25C177.189,21.692 177.29,22.152 177.33,22.62C177.42,23.24 177.17,24.14 177.48,24.69C177.586,24.482 177.706,24.281 177.84,24.09C177.973,23.834 178.199,23.638 178.47,23.54C178.73,23.54 179.4,23.86 179.35,24.3" style="fill:rgb(105,77,40);fill-rule:nonzero;"/>
        </g>
        <g transform="matrix(3.02267,0,0,3.02267,1.14861,9.00756)">
            <path d="M173.6,108.95L166.45,108.95L166.45,107.52L170.74,106.09L173.6,106.09L173.6,108.95Z" style="fill:rgb(183,157,0);fill-rule:nonzero;"/>
        </g>
        <g transform="matrix(3.02267,0,0,3.02267,1.14861,9.00756)">
            <path d="M179.38,108.95L172.23,108.95L172.23,107.52L176.53,106.09L179.38,106.09L179.38,108.95Z" style="fill:rgb(183,157,0);fill-rule:nonzero;"/>
        </g>
        <g transform="matrix(3.02267,0,0,3.02267,1.14861,9.00756)">
            <path d="M172.87,35.28L174.56,38.65L179.69,33.43L178.51,31.44L172.87,35.28Z" style="fill:white;fill-rule:nonzero;"/>
        </g>
        <g transform="matrix(3.02267,0,0,3.02267,1.14861,9.00756)">
            <path d="M172.17,35.28L170.9,37.95L168.93,33.43L170.11,32.14L172.17,35.28Z" style="fill:white;fill-rule:nonzero;"/>
        </g>
        <g transform="matrix(3.02267,0,0,3.02267,1.14861,9.00756)">
            <path d="M173.87,64.87L181.89,64.87L179.94,106.58L174.48,106.58L173.87,64.87Z" style="fill:rgb(46,46,40);fill-rule:nonzero;"/>
        </g>
        <g transform="matrix(3.02267,0,0,3.02267,1.14861,9.00756)">
            <path d="M174.54,64.87L166.52,64.87L168.47,106.58L173.93,106.58L174.54,64.87Z" style="fill:rgb(46,46,40);fill-rule:nonzero;"/>
        </g>
        <g transform="matrix(3.02267,0,0,3.02267,1.14861,9.00756)">
            <path d="M183.41,72.31C184.2,72.31 184.84,71.03 184.84,69.45C184.84,67.87 184.2,66.59 183.41,66.59C182.62,66.59 182,67.87 182,69.45C182,71.03 182.64,72.31 183.43,72.31" style="fill:rgb(210,173,110);fill-rule:nonzero;"/>
        </g>
        <g transform="matrix(3.02267,0,0,3.02267,1.14861,9.00756)">
            <path d="M181.59,70.94C182.16,71.04 182.79,70.11 183.01,68.86C183.23,67.61 182.95,66.51 182.38,66.41C181.81,66.31 181.18,67.24 180.96,68.49C180.74,69.74 181.02,70.84 181.59,70.93" style="fill:rgb(210,173,110);fill-rule:nonzero;"/>
        </g>
        <g transform="matrix(3.02267,0,0,3.02267,1.14861,9.00756)">
            <rect x="179.69" y="44.87" width="5.15" height="21.95" style="fill:rgb(110,125,52);"/>
        </g>
    </g>
</svg>
