<?xml version="1.0" encoding="UTF-8" standalone="no"?>
<svg width="42px" height="41px" viewBox="0 0 42 41" version="1.1" xmlns="http://www.w3.org/2000/svg" xmlns:xlink="http://www.w3.org/1999/xlink">
    <!-- Generator: Sketch 3.8.2 (29753) - http://www.bohemiancoding.com/sketch -->
    <title>eufa_icon_up</title>
    <desc>Created with Sketch.</desc>
    <defs></defs>
    <g id="Page-1" stroke="none" stroke-width="1" fill="none" fill-rule="evenodd">
        <g id="eufa_icon_up">
            <g id="Page-1" transform="translate(0.500000, 0.000000)">
                <path d="M20.458,40.9175 C9.178,40.9175 0,31.7395 0,20.4595 C0,9.1785 9.178,0.0005 20.458,0.0005 C31.739,0.0005 40.917,9.1785 40.917,20.4595 C40.917,31.7395 31.739,40.9175 20.458,40.9175" id="Fill-1" fill="#f0f"></path>
                <path d="M20.458,2.6885 C10.66,2.6885 2.688,10.6605 2.688,20.4595 C2.688,30.2575 10.66,38.2305 20.458,38.2305 C30.257,38.2305 38.229,30.2575 38.229,20.4595 C38.229,10.6605 30.257,2.6885 20.458,2.6885" id="Fill-3" fill="#fff"></path>
                <path d="M10.9656,20.4499 L14.3306,23.8129 C14.3306,23.8129 16.2176,21.9259 18.0756,20.0679 L18.0756,29.9519 L22.8386,29.9519 L22.8386,20.0679 L26.5856,23.8149 L29.9506,20.4499 L20.4576,10.9669 L10.9656,20.4499 Z" id="Fill-5" fill="#f0f"></path>
            </g>
        </g>
    </g>
</svg>
